<svg xmlns="http://www.w3.org/2000/svg" width="60" height="60" viewBox="0 0 60 60" fill="none"><g clip-path="url(#clip0)"><path d="M30 23.5935C22.6927 23.5935 16.7478 29.5384 16.7478 36.8457C16.7478 44.1529 22.6927 50.0979 30 50.0979C37.3072 50.0979 43.2521 44.1531 43.2521 36.8458C43.2521 29.5384 37.3073 23.5935 30 23.5935ZM30 47.7542C23.9851 47.7542 19.0916 42.8607 19.0916 36.8458C19.0916 30.8308 23.9851 25.9374 30 25.9374C36.0149 25.9374 40.9084 30.8309 40.9084 36.8458C40.9084 42.8607 36.0149 47.7542 30 47.7542Z" fill="#F6836B"></path><path d="M31.8237 35.8976C31.6269 35.828 31.4401 35.7613 31.263 35.6976V31.9321C31.7269 32.0734 32.0482 32.3096 32.2058 32.5342C32.5775 33.064 33.3085 33.1922 33.8382 32.8203C34.368 32.4485 34.4961 31.7176 34.1243 31.1878C33.5718 30.4004 32.5702 29.7433 31.263 29.5303V29.2827C31.263 28.6355 30.7383 28.1108 30.0912 28.1108C29.4441 28.1108 28.9193 28.6355 28.9193 29.2827V29.6194C28.7413 29.6589 28.5603 29.706 28.3768 29.7613C26.9065 30.2043 25.7965 31.6327 25.6778 33.2349C25.5605 34.817 26.4029 36.1917 27.9312 36.9124C28.1477 37.0146 28.4873 37.1558 28.9194 37.3244V41.8334C28.3165 41.6534 27.7629 41.3515 27.4031 40.9049C26.9968 40.4008 26.2594 40.3214 25.7552 40.7274C25.2512 41.1333 25.1718 41.8711 25.5777 42.3751C26.4316 43.4352 27.6922 44.0022 28.9194 44.2432V44.4086C28.9194 45.0558 29.4442 45.5804 30.0913 45.5804C30.7384 45.5804 31.2632 45.0558 31.2632 44.4086V44.3326C33.8527 44.0049 34.983 42.3204 35.1741 40.8168C35.4412 38.7122 34.0635 36.6894 31.8237 35.8976ZM28.0151 33.4084C28.0583 32.8256 28.4368 32.2703 28.9193 32.0555V34.7874C28.1162 34.4038 27.984 33.8263 28.0151 33.4084ZM32.8488 40.5216C32.7557 41.2556 32.186 41.7644 31.263 41.9579V38.1934C32.4871 38.7186 32.9471 39.7479 32.8488 40.5216Z" fill="#F6836B"></path><path d="M58.5142 57.6562H58.4317V54.1496C58.4317 53.5024 57.9069 52.9778 57.2598 52.9778H56.9509V48.6547C56.9509 48.0075 56.4261 47.4829 55.779 47.4829H54.3282V26.1957H55.779C56.4261 26.1957 56.9509 25.6711 56.9509 25.0239V20.7008H57.2598C57.9069 20.7008 58.4317 20.1762 58.4317 19.5289V14.8505C58.4317 14.2032 57.9069 13.6786 57.2598 13.6786H54.7996L30.5717 0.148711C30.2165 -0.0495703 29.7841 -0.0495703 29.4289 0.148711L5.20124 13.6785H2.741C2.09389 13.6785 1.56913 14.2031 1.56913 14.8504V19.5288C1.56913 20.1761 2.09389 20.7007 2.741 20.7007H3.04991V25.0238C3.04991 25.671 3.57467 26.1956 4.22178 26.1956H5.67257V47.4827H4.22178C3.57467 47.4827 3.04991 48.0074 3.04991 48.6546V52.9777H2.741C2.09389 52.9777 1.56913 53.5023 1.56913 54.1495V57.6562H1.48663C0.839518 57.6562 0.314753 58.1809 0.314753 58.8281C0.314753 59.4754 0.839518 60 1.48663 60H58.5142C59.1613 60 59.686 59.4754 59.686 58.8281C59.686 58.1809 59.1613 57.6562 58.5142 57.6562ZM54.6071 52.9778H46.1086V49.8266H54.6071V52.9778ZM16.236 52.9778V48.6547C16.236 48.0075 15.7112 47.4829 15.0641 47.4829H13.6132V26.1957H15.0641C15.7112 26.1957 16.236 25.6711 16.236 25.0239V20.7008H43.7647V25.0239C43.7647 25.6711 44.2895 26.1957 44.9366 26.1957H46.3875V47.4829H44.9366C44.2895 47.4829 43.7647 48.0075 43.7647 48.6547V52.9778H16.236ZM51.9845 47.4829H48.7312V26.1957H51.9845V47.4829ZM54.6071 23.852H46.1086V20.7008H54.6071V23.852ZM30.0003 2.51414L49.9924 13.6786H10.0083L30.0003 2.51414ZM3.91288 16.0222H56.0879V18.357H3.91288V16.0222ZM5.39366 20.7008H13.8922V23.852H5.39366V20.7008ZM8.0162 26.1957H11.2694V47.4829H8.0162V26.1957ZM5.39366 49.8266H13.8922V52.9778H5.39366V49.8266ZM3.91288 57.6562V55.3215H56.0879V57.6562H3.91288Z" fill="#F6836B"></path></g><defs><clipPath id="clip0"><rect width="60" height="60" fill="white"></rect></clipPath></defs></svg>