<svg xmlns="http://www.w3.org/2000/svg" width="60" height="60" viewBox="0 0 60 60" fill="none"><g clip-path="url(#clip0)"><path d="M30.0703 25.3906C35.692 25.3906 40.2656 20.817 40.2656 15.1953C40.2656 9.57359 35.692 5 30.0703 5C24.4486 5 19.875 9.57359 19.875 15.1953C19.875 20.817 24.4486 25.3906 30.0703 25.3906ZM30.0703 8.51562C33.7535 8.51562 36.75 11.5121 36.75 15.1953C36.75 18.8785 33.7535 21.875 30.0703 21.875C26.3871 21.875 23.3906 18.8785 23.3906 15.1953C23.3906 11.5121 26.3871 8.51562 30.0703 8.51562Z" fill="#F6836B"></path><path d="M50.6953 25.3906C54.2493 25.3906 57.1406 22.4993 57.1406 18.9453C57.1406 15.3914 54.2493 12.5 50.6953 12.5C47.1414 12.5 44.25 15.3914 44.25 18.9453C44.25 22.4993 47.1414 25.3906 50.6953 25.3906ZM50.6953 16.0156C52.3107 16.0156 53.625 17.3299 53.625 18.9453C53.625 20.5607 52.3107 21.875 50.6953 21.875C49.0799 21.875 47.7656 20.5607 47.7656 18.9453C47.7656 17.3299 49.0799 16.0156 50.6953 16.0156Z" fill="#F6836B"></path><path d="M52.043 28.2422H49.3242C46.1204 28.2422 43.3548 30.135 42.0946 32.8537C39.4999 30.0213 35.773 28.2422 31.6382 28.2422H28.362C24.2271 28.2422 20.5002 30.0213 17.9055 32.8537C16.6452 30.135 13.8796 28.2422 10.6758 28.2422H7.95703C3.56953 28.2422 0 31.7902 0 36.1512V48.9492C0 50.8425 1.54617 52.3828 3.44672 52.3828H14.196C14.3762 54.4805 16.1401 56.1328 18.2838 56.1328H41.7163C43.8599 56.1328 45.6238 54.4805 45.8041 52.3828H56.4306C58.3989 52.3828 60.0001 50.7879 60.0001 48.8273V36.1512C60 31.7902 56.4305 28.2422 52.043 28.2422ZM3.51562 36.1512C3.51562 33.7287 5.50805 31.7578 7.95703 31.7578H10.6758C13.1248 31.7578 15.1172 33.7287 15.1172 36.1512V37.3548C13.9351 40.4326 14.1797 42.2771 14.1797 48.8672H3.51562V36.1512ZM42.3047 52.0288C42.3047 52.3533 42.0408 52.6172 41.7163 52.6172H18.2837C17.9592 52.6172 17.6953 52.3532 17.6953 52.0288V42.4245C17.6953 36.5428 22.4803 31.7578 28.3618 31.7578H31.638C37.5197 31.7578 42.3047 36.5428 42.3047 42.4243V52.0288ZM56.4844 48.8273C56.4844 48.8879 57.1397 48.8672 45.8203 48.8672C45.8203 42.2284 46.063 40.4276 44.8828 37.3548V36.1512C44.8828 33.7287 46.8752 31.7578 49.3242 31.7578H52.043C54.492 31.7578 56.4844 33.7287 56.4844 36.1512V48.8273Z" fill="#F6836B"></path><path d="M9.44531 25.3906C12.9993 25.3906 15.8906 22.4993 15.8906 18.9453C15.8906 15.3914 12.9993 12.5 9.44531 12.5C5.89137 12.5 3 15.3914 3 18.9453C3 22.4993 5.89137 25.3906 9.44531 25.3906ZM9.44531 16.0156C11.0607 16.0156 12.375 17.3299 12.375 18.9453C12.375 20.5607 11.0607 21.875 9.44531 21.875C7.82988 21.875 6.51562 20.5607 6.51562 18.9453C6.51562 17.3299 7.82988 16.0156 9.44531 16.0156Z" fill="#F6836B"></path></g><defs><clipPath id="clip0"><rect width="60" height="60" fill="white"></rect></clipPath></defs></svg>