<svg xmlns="http://www.w3.org/2000/svg" width="1137" height="60" viewBox="0 0 1137 60" fill="none"><rect x="4" y="27" width="1133" height="5" rx="2.5" fill="#EDEDED"></rect><circle cx="718" cy="30" r="29" fill="white" stroke="#E5E5E5" stroke-width="2"></circle><path d="M725.67 28.9537C725.71 28.9537 725.75 28.9543 725.79 28.955L725.8 28.9552C726.024 28.9592 726.246 28.9737 726.466 28.9977V20.8317C726.466 19.2704 725.195 18 723.634 18H711.348C709.786 18 708.516 19.2704 708.516 20.8317V37.1195C708.516 38.681 709.786 39.9514 711.347 39.9514H719.55C718.843 38.8138 718.471 37.5145 718.471 36.1566C718.471 32.1848 721.701 28.9537 725.67 28.9537ZM718.671 22.6236H722.868C723.256 22.6236 723.571 22.9384 723.571 23.3267C723.571 23.7151 723.256 24.0298 722.868 24.0298H718.671C718.283 24.0298 717.968 23.7151 717.968 23.3267C717.968 22.9384 718.283 22.6236 718.671 22.6236ZM718.671 25.4363H722.868C723.256 25.4363 723.571 25.751 723.571 26.1394C723.571 26.5278 723.256 26.8425 722.868 26.8425H718.671C718.283 26.8425 717.968 26.5278 717.968 26.1394C717.968 25.751 718.283 25.4363 718.671 25.4363ZM716.31 35.3276H712.114C711.725 35.3276 711.411 35.0129 711.411 34.6245C711.411 34.2363 711.725 33.9214 712.114 33.9214H716.31C716.698 33.9214 717.013 34.2363 717.013 34.6245C717.013 35.0129 716.698 35.3276 716.31 35.3276ZM716.31 32.4679H712.114C711.725 32.4679 711.411 32.1531 711.411 31.7648C711.411 31.3764 711.725 31.0616 712.114 31.0616H716.31C716.698 31.0616 717.013 31.3764 717.013 31.7648C717.013 32.1531 716.698 32.4679 716.31 32.4679ZM716.31 29.6552H712.114C711.725 29.6552 711.411 29.3405 711.411 28.9521C711.411 28.5637 711.725 28.249 712.114 28.249H716.31C716.698 28.249 717.013 28.5637 717.013 28.9521C717.013 29.3405 716.698 29.6552 716.31 29.6552ZM716.31 26.8425H712.114C711.725 26.8425 711.411 26.5278 711.411 26.1394C711.411 25.751 711.725 25.4363 712.114 25.4363H716.31C716.698 25.4363 717.013 25.751 717.013 26.1394C717.013 26.5278 716.698 26.8425 716.31 26.8425ZM716.31 24.0298H712.114C711.725 24.0298 711.411 23.7151 711.411 23.3267C711.411 22.9384 711.725 22.6236 712.114 22.6236H716.31C716.698 22.6236 717.013 22.9384 717.013 23.3267C717.013 23.7151 716.698 24.0298 716.31 24.0298ZM717.968 28.9521C717.968 28.5637 718.283 28.249 718.671 28.249H720.693C721.081 28.249 721.396 28.5637 721.396 28.9521C721.396 29.3405 721.081 29.6552 720.693 29.6552H718.671C718.283 29.6552 717.968 29.3405 717.968 28.9521Z" fill="#009EDB"></path><path d="M729.834 32.0598C728.754 30.9615 727.313 30.3415 725.775 30.3144L725.765 30.3142C725.733 30.3137 725.702 30.3131 725.67 30.3131C722.45 30.3131 719.831 32.9344 719.831 36.1566C719.831 37.4363 720.237 38.6516 721.005 39.6713C722.12 41.1513 723.82 42 725.67 42C728.89 42 731.509 39.3787 731.509 36.1566C731.509 34.6141 730.914 33.1591 729.834 32.0598ZM728.165 35.2066L725.935 37.9863C725.797 38.159 725.593 38.2496 725.386 38.2496C725.243 38.2496 725.099 38.2059 724.974 38.1158L723.311 36.9108C722.997 36.683 722.926 36.2433 723.154 35.9288C723.382 35.6144 723.822 35.5441 724.136 35.772L725.257 36.5843L727.068 34.3266C727.311 34.0237 727.754 33.9752 728.057 34.2182C728.359 34.4612 728.408 34.9037 728.165 35.2066Z" fill="#009EDB"></path><circle cx="1011" cy="30" r="29" fill="white" stroke="#E5E5E5" stroke-width="2"></circle><g clip-path="url(#clip0)"><path d="M1014.28 34.8193L1015.36 33.0386L1017.31 32.3632L1017.53 30.2834L1019 28.8166L1018.3 26.8472L1019 24.8779L1017.53 23.411L1017.32 21.3313L1015.36 20.6558L1014.28 18.8752L1012.24 19.1255L1010.5 18L1008.76 19.1255L1006.72 18.8752L1005.64 20.6558L1003.68 21.3313L1003.47 23.411L1002 24.8779L1002.7 26.8472L1002 28.8166L1003.47 30.2834L1003.68 32.3632L1005.64 33.0386L1006.72 34.8193L1008.76 34.5644L1010.5 35.6899L1012.24 34.5644L1014.28 34.8193ZM1004.52 26.8472C1004.52 25.6473 1004.87 24.4742 1005.53 23.4765C1006.19 22.4788 1007.12 21.7011 1008.21 21.2419C1009.31 20.7827 1010.51 20.6625 1011.67 20.8966C1012.83 21.1307 1013.89 21.7086 1014.73 22.5571C1015.56 23.4056 1016.13 24.4867 1016.36 25.6636C1016.59 26.8405 1016.48 28.0604 1016.02 29.169C1015.57 30.2777 1014.8 31.2252 1013.82 31.8919C1012.84 32.5586 1011.68 32.9144 1010.5 32.9144C1008.92 32.9127 1007.4 32.2729 1006.28 31.1355C1005.15 29.9981 1004.52 28.4558 1004.52 26.8472Z" fill="#009EDB"></path><path d="M1010.5 22.1871C1009.59 22.1871 1008.7 22.4604 1007.95 22.9725C1007.19 23.4846 1006.61 24.2124 1006.26 25.0639C1005.91 25.9154 1005.82 26.8524 1006 27.7564C1006.17 28.6604 1006.61 29.4907 1007.25 30.1425C1007.9 30.7942 1008.71 31.238 1009.6 31.4178C1010.5 31.5976 1011.42 31.5054 1012.26 31.1526C1013.1 30.7999 1013.81 30.2026 1014.32 29.4363C1014.82 28.6699 1015.09 27.7689 1015.09 26.8473C1015.09 25.6117 1014.61 24.4271 1013.75 23.5534C1012.89 22.6797 1011.72 22.1884 1010.5 22.1871Z" fill="#009EDB"></path><path d="M1008.44 36.0267L1006 36.3248L1004.72 34.2083L1004.28 34.0573L1002.4 40.0389L1005.79 39.8493L1008.44 42.0027L1010.01 37.0463L1008.44 36.0267Z" fill="#009EDB"></path><path d="M1016.28 34.2083L1015 36.3248L1012.56 36.0267L1010.99 37.0435L1012.56 42L1015.21 39.8466L1018.6 40.0362L1016.72 34.0546L1016.28 34.2083Z" fill="#009EDB"></path></g><circle cx="421" cy="30" r="29" fill="white" stroke="#EDEDED" stroke-width="2"></circle><path d="M414.072 42H427.921C428.47 41.998 428.996 41.7756 429.384 41.3814C429.773 40.9872 429.991 40.4531 429.993 39.8956V25.0309H425.154C424.605 25.0288 424.079 24.8065 423.691 24.4123C423.303 24.018 423.084 23.484 423.082 22.9265V18H414.072C413.523 18.002 412.997 18.2244 412.609 18.6186C412.221 19.0128 412.002 19.5469 412 20.1044V39.8856C411.999 40.4449 412.217 40.9815 412.606 41.3778C412.994 41.7742 413.521 41.9979 414.072 42ZM416.846 27.8906H425.154C425.337 27.8906 425.514 27.9647 425.643 28.0966C425.773 28.2285 425.846 28.4074 425.846 28.5939C425.846 28.7805 425.773 28.9594 425.643 29.0912C425.514 29.2231 425.337 29.2972 425.154 29.2972H416.846C416.755 29.2972 416.665 29.2791 416.581 29.2437C416.497 29.2084 416.421 29.1566 416.357 29.0913C416.292 29.0259 416.241 28.9484 416.206 28.8631C416.172 28.7778 416.154 28.6863 416.154 28.5939C416.154 28.5016 416.172 28.4101 416.206 28.3248C416.241 28.2395 416.292 28.1619 416.357 28.0966C416.421 28.0313 416.497 27.9795 416.581 27.9442C416.665 27.9088 416.755 27.8906 416.846 27.8906ZM416.846 30.7028H425.154C425.337 30.7028 425.514 30.7769 425.643 30.9087C425.773 31.0406 425.846 31.2195 425.846 31.4061C425.846 31.5926 425.773 31.7715 425.643 31.9034C425.514 32.0353 425.337 32.1094 425.154 32.1094H416.846C416.663 32.1094 416.486 32.0353 416.357 31.9034C416.227 31.7715 416.154 31.5926 416.154 31.4061C416.154 31.2195 416.227 31.0406 416.357 30.9087C416.486 30.7769 416.663 30.7028 416.846 30.7028ZM416.846 33.5149H425.154C425.337 33.5149 425.514 33.589 425.643 33.7209C425.773 33.8528 425.846 34.0317 425.846 34.2182C425.846 34.4047 425.773 34.5836 425.643 34.7155C425.514 34.8474 425.337 34.9215 425.154 34.9215H416.846C416.755 34.9215 416.665 34.9033 416.581 34.868C416.497 34.8326 416.421 34.7808 416.357 34.7155C416.292 34.6502 416.241 34.5727 416.206 34.4873C416.172 34.402 416.154 34.3106 416.154 34.2182C416.154 34.1258 416.172 34.0344 416.206 33.949C416.241 33.8637 416.292 33.7862 416.357 33.7209C416.421 33.6556 416.497 33.6038 416.581 33.5684C416.665 33.5331 416.755 33.5149 416.846 33.5149ZM416.846 36.327H422.385C422.569 36.327 422.745 36.4011 422.875 36.533C423.004 36.6649 423.077 36.8438 423.077 37.0303C423.077 37.2168 423.004 37.3957 422.875 37.5276C422.745 37.6595 422.569 37.7336 422.385 37.7336H416.846C416.663 37.7336 416.486 37.6595 416.357 37.5276C416.227 37.3957 416.154 37.2168 416.154 37.0303C416.154 36.8438 416.227 36.6649 416.357 36.533C416.486 36.4011 416.663 36.327 416.846 36.327Z" fill="#009EDB"></path><path d="M425.154 23.6298H429.594L424.461 18.412V22.9221C424.461 23.0148 424.478 23.1067 424.513 23.1926C424.547 23.2784 424.598 23.3565 424.663 23.4222C424.727 23.488 424.803 23.5402 424.888 23.5758C424.972 23.6115 425.062 23.6298 425.154 23.6298Z" fill="#009EDB"></path><path d="M0 30C0 27.2386 2.23858 25 5 25H144C146.761 25 149 27.2386 149 30V30C149 32.7614 146.761 35 144 35H5C2.23858 35 0 32.7614 0 30V30Z" fill="#009EDB"></path><circle cx="131" cy="30" r="30" fill="#009EDB"></circle><g clip-path="url(#clip1)"><path d="M131.25 20H130.15C129.82 18.85 128.76 18 127.5 18C126.24 18 125.18 18.85 124.85 20H123.75C123.34 20 123 20.34 123 20.75V22.25C123 23.21 123.79 24 124.75 24H130.25C131.21 24 132 23.21 132 22.25V20.75C132 20.34 131.66 20 131.25 20Z" fill="white"></path><path d="M133.25 21H133V22.25C133 23.77 131.77 25 130.25 25H124.75C123.23 25 122 23.77 122 22.25V21H121.75C120.23 21 119 22.23 119 23.75V36.25C119 37.77 120.23 39 121.75 39H129.13L129.35 37.77C129.45 37.21 129.71 36.71 130.11 36.3L130.91 35.5H122.75C122.34 35.5 122 35.16 122 34.75C122 34.34 122.34 34 122.75 34H132.25C132.3 34 132.34 34 132.39 34.02H132.4L136 30.42V23.75C136 22.23 134.77 21 133.25 21ZM132.25 32.25H122.75C122.34 32.25 122 31.91 122 31.5C122 31.09 122.34 30.75 122.75 30.75H132.25C132.66 30.75 133 31.09 133 31.5C133 31.91 132.66 32.25 132.25 32.25ZM132.25 29H122.75C122.34 29 122 28.66 122 28.25C122 27.84 122.34 27.5 122.75 27.5H132.25C132.66 27.5 133 27.84 133 28.25C133 28.66 132.66 29 132.25 29Z" fill="white"></path><path d="M131.527 41.9999C131.33 41.9999 131.138 41.9219 130.997 41.7799C130.824 41.6069 130.746 41.3609 130.789 41.1189L131.319 38.1139C131.345 37.9629 131.419 37.8229 131.527 37.7139L138.952 30.2899C139.864 29.3759 140.76 29.6229 141.25 30.1129L142.487 31.3499C143.17 32.0319 143.17 33.1419 142.487 33.8249L135.062 41.2499C134.954 41.3589 134.814 41.4319 134.662 41.4579L131.657 41.9879C131.614 41.9959 131.57 41.9999 131.527 41.9999ZM134.532 40.7199H134.542H134.532Z" fill="white"></path></g><defs><clipPath id="clip0"><rect width="17" height="24" fill="white" transform="translate(1002 18)"></rect></clipPath><clipPath id="clip1"><rect width="24" height="24" fill="white" transform="translate(119 18)"></rect></clipPath></defs></svg>