<svg xmlns="http://www.w3.org/2000/svg" width="60" height="60" viewBox="0 0 60 60" fill="none"><path d="M4.75 59.15H32.25C34.4003 59.15 36.15 57.4004 36.15 55.25V52.75C36.15 50.5997 34.4003 48.85 32.25 48.85H4.75C2.59966 48.85 0.85 50.5997 0.85 52.75V55.25C0.85 57.4004 2.59966 59.15 4.75 59.15ZM3.65 52.75C3.65 52.1452 4.14304 51.65 4.75 51.65H32.25C32.857 51.65 33.35 52.1452 33.35 52.75V55.25C33.35 55.8549 32.857 56.35 32.25 56.35H4.75C4.14304 56.35 3.65 55.8549 3.65 55.25V52.75Z" fill="#F6836B" stroke="#F6836B" stroke-width="0.3"></path><path d="M23.9618 13.9603C22.1317 15.7904 20.8786 17.3594 20.0949 18.5417C19.7029 19.1331 19.4298 19.6256 19.2607 20.0041C19.1761 20.1934 19.1186 20.3517 19.0849 20.4778C19.0598 20.5723 19.0499 20.6418 19.0488 20.6898L27.2764 28.8462C27.3126 28.8371 27.3634 28.8211 27.4307 28.7951C27.5438 28.7515 27.6905 28.685 27.8691 28.5927C28.226 28.4084 28.7041 28.1248 29.2853 27.7263C30.4472 26.9296 32.0168 25.6763 33.8479 23.8465C33.8479 23.8465 33.8479 23.8464 33.848 23.8464M23.9618 13.9603L38.9071 17.1275C38.8831 17.8475 37.4865 20.4176 33.954 23.9525L33.848 23.8464M23.9618 13.9603C25.7916 12.1317 27.3607 10.879 28.522 10.0825C29.1029 9.68415 29.5807 9.40064 29.9373 9.21637C30.1157 9.12416 30.2622 9.05761 30.3751 9.01401C30.4418 8.98822 30.4923 8.97228 30.5282 8.96311L38.7517 17.1843M23.9618 13.9603L38.7517 17.1843M33.848 23.8464C35.6086 22.0846 36.8344 20.5656 37.622 19.4004C38.0158 18.8177 38.299 18.325 38.4844 17.936C38.649 17.591 38.7305 17.3401 38.7517 17.1843M33.848 23.8464L38.7517 17.1843M17.6529 17.3422L17.6529 17.3423L17.65 17.3468C17.3844 17.7651 16.8391 18.6237 16.5464 19.5675C16.2536 20.5116 16.2002 21.5894 16.9967 22.3859L25.4199 30.8092C25.8951 31.2843 26.4714 31.4578 27.0618 31.4578C27.7473 31.4578 28.4544 31.221 29.0559 30.9437C29.659 30.6656 30.169 30.3405 30.4612 30.1529C32.0354 29.1518 33.911 27.5938 35.7398 25.7649C37.5735 23.9336 39.1364 22.0557 40.1423 20.4766L40.1424 20.4766L40.1447 20.4729C40.4113 20.0539 40.959 19.1929 41.2531 18.2466C41.547 17.3007 41.6012 16.221 40.8034 15.4232L32.3802 7C31.5837 6.20347 30.5052 6.25698 29.5599 6.55034C28.6115 6.8447 27.7483 7.39407 27.3292 7.6611C25.7525 8.66465 23.8746 10.2275 22.0434 12.0611C20.2145 13.89 18.6564 15.7656 17.6529 17.3422Z" fill="#F6836B" stroke="#F6836B" stroke-width="0.3"></path><path d="M25.6463 35.863L25.6461 35.8632C24.9163 36.5906 23.961 36.9557 23.0061 36.9557C22.0513 36.9557 21.0935 36.5907 20.3659 35.863L11.9428 27.44C11.9428 27.4399 11.9427 27.4399 11.9427 27.4398L11.9426 27.4398L12.0487 27.3337C11.372 26.6594 11 25.7595 11 24.802C11 23.8444 11.372 22.9445 12.0511 22.2678L25.6463 35.863ZM25.6463 35.863L27.331 34.1784C28.7862 32.7231 28.7862 30.3556 27.331 28.9003L18.9077 20.4771C17.4525 19.0218 15.0849 19.0218 13.6297 20.4771L11.9452 22.1615C11.9452 22.1616 11.9452 22.1616 11.9451 22.1616L25.6463 35.863ZM15.5355 22.3888C15.5356 22.3887 15.5357 22.3886 15.5358 22.3885C15.7401 22.1865 16.0043 22.0842 16.2675 22.0842C16.5308 22.0842 16.7949 22.1865 16.9992 22.3885C16.9993 22.3886 16.9994 22.3887 16.9995 22.3888L25.4222 30.8115C25.8244 31.2137 25.8244 31.8698 25.4222 32.272L23.7378 33.9564C23.7378 33.9564 23.7377 33.9565 23.7377 33.9565C23.3352 34.3567 22.6811 34.3587 22.2768 33.9564L13.8538 25.5334C13.6562 25.3358 13.5498 25.0788 13.5498 24.802C13.5498 24.5252 13.6562 24.2681 13.8538 24.0705L15.5355 22.3888Z" fill="#F6836B" stroke="#F6836B" stroke-width="0.3"></path><path d="M34.0663 3.85751C34.0662 3.85761 34.0661 3.8577 34.066 3.8578L32.3819 5.5419C31.9798 5.94408 31.9798 6.59783 32.3819 7.00001L40.8049 15.423C40.8049 15.423 40.805 15.4231 40.8051 15.4231C41.2073 15.8231 41.8636 15.823 42.2658 15.4231C42.2658 15.4231 42.2659 15.423 42.266 15.423L43.9503 13.741L34.0663 3.85751ZM34.0663 3.85751C34.2701 3.65602 34.534 3.55562 34.798 3.55562C35.0623 3.55562 35.326 3.65619 35.5271 3.85725L43.9503 12.2805C44.3525 12.6826 44.3525 13.3387 43.9504 13.7409L34.0663 3.85751ZM38.8964 17.3296C39.624 18.0573 40.5818 18.4222 41.5366 18.4222C42.4913 18.4222 43.4467 18.0598 44.1745 17.332L45.8591 15.6474C47.3144 14.1921 47.3144 11.8245 45.8591 10.3693L37.4359 1.94608C35.9806 0.490826 33.6131 0.490826 32.1578 1.94608L30.4732 3.63072C29.0179 5.08597 29.0179 7.45114 30.4732 8.90639L38.8964 17.3296Z" fill="#F6836B" stroke="#F6836B" stroke-width="0.3"></path><path d="M51.5712 44.7198L51.5713 44.7199C52.9145 46.0655 53.8163 46.4424 54.4342 46.4397C55.0459 46.437 55.4265 46.0639 55.7439 45.7489C56.0374 45.4553 56.3902 45.0978 56.4394 44.5953L56.4394 44.595C56.476 44.2283 56.3582 43.7843 56.0689 43.2703C55.7805 42.7577 55.3284 42.1878 54.7163 41.5745L51.5712 44.7198ZM51.5712 44.7198C50.1453 43.2938 40.5805 32.8081 34.2797 25.3795C33.7964 24.8073 32.9433 24.7398 32.3763 25.2228C31.8068 25.7036 31.7366 26.5566 32.2197 27.1237C38.2633 34.2497 48.0023 44.9684 49.6625 46.6286C51.3299 48.296 52.9236 49.1563 54.4289 49.1563C55.584 49.1563 56.6616 48.6486 57.6569 47.6558L57.6571 47.6557L57.6601 47.6527C58.0805 47.2323 58.9836 46.3292 59.1305 44.8624C59.2955 43.2175 58.4308 41.4667 56.63 39.6659M51.5712 44.7198L37.1227 22.2207M37.1227 22.2207L37.1227 22.2207C44.2774 28.2906 54.9842 38.0177 56.63 39.6659M37.1227 22.2207C36.5564 21.7407 35.7057 21.8022 35.2195 22.3772C34.736 22.9447 34.8068 23.7952 35.376 24.2781M37.1227 22.2207L35.376 24.2781M56.63 39.6659L56.5239 39.7719L56.63 39.6658C56.63 39.6659 56.63 39.6659 56.63 39.6659ZM35.376 24.2781C42.8334 30.6078 53.3023 40.1582 54.7163 41.5745L35.376 24.2781Z" fill="#F6836B" stroke="#F6836B" stroke-width="0.3"></path></svg>