<svg xmlns="http://www.w3.org/2000/svg" width="60" height="60" viewBox="0 0 60 60" fill="none"><path d="M33.9895 52.2681H28.0181C27.7073 52.2681 27.4092 52.3915 27.1895 52.6113C26.9697 52.8311 26.8462 53.1291 26.8462 53.4399C26.8462 53.7507 26.9697 54.0488 27.1895 54.2686C27.4092 54.4884 27.7073 54.6118 28.0181 54.6118H33.9895C34.3003 54.6118 34.5984 54.4884 34.8181 54.2686C35.0379 54.0488 35.1614 53.7507 35.1614 53.4399C35.1614 53.1291 35.0379 52.8311 34.8181 52.6113C34.5984 52.3915 34.3003 52.2681 33.9895 52.2681Z" fill="#F6836B"></path><path d="M54.3752 19.4531C52.0124 19.4531 49.9699 20.1144 48.469 21.3653C48.3306 21.4807 48.1893 21.6086 48.0471 21.7481V3.75C48.0448 2.94264 47.723 2.16902 47.1521 1.59813C46.5812 1.02724 45.8076 0.705475 45.0002 0.703125H16.8752C16.0679 0.705475 15.2943 1.02724 14.7234 1.59813C14.1525 2.16902 13.8307 2.94264 13.8284 3.75V6.86719L13.6832 6.72199C12.7601 5.79891 11.5081 5.28033 10.2027 5.28033C8.89728 5.28033 7.64531 5.79891 6.72224 6.72199C5.79916 7.64507 5.28058 8.89703 5.28058 10.2025C5.28058 11.5079 5.79916 12.7599 6.72224 13.6829L11.7934 18.7541C10.9726 18.9935 10.2283 19.4424 9.63372 20.0568C9.03914 20.6712 8.61478 21.4298 8.40241 22.258C8.19004 23.0862 8.19698 23.9554 8.42254 24.7801C8.64811 25.6048 9.08452 26.3565 9.68884 26.9613L12.5735 29.846C11.6576 29.9575 10.7915 30.3242 10.074 30.9043C9.3565 31.4844 8.81654 32.2545 8.51575 33.1268C8.21496 33.999 8.16545 34.9383 8.37288 35.8373C8.5803 36.7364 9.0363 37.559 9.68884 38.2113L11.6358 40.1586C10.7199 40.2701 9.85375 40.6368 9.13626 41.2169C8.41876 41.797 7.87881 42.5671 7.57802 43.4394C7.27723 44.3116 7.22772 45.2509 7.43514 46.15C7.64257 47.049 8.09857 47.8716 8.7511 48.5239L13.8284 53.6016V56.25C13.8293 57.0578 14.1506 57.8323 14.7218 58.4035C15.293 58.9747 16.0674 59.296 16.8752 59.2969H39.3752C39.686 59.2969 39.9841 59.1734 40.2039 58.9536C40.4237 58.7339 40.5471 58.4358 40.5471 58.125V46.875C40.5495 45.893 40.7792 44.9249 41.2184 44.0466C41.6576 43.1683 42.2942 42.4036 43.0784 41.8125L47.5784 38.4375C47.7232 38.3277 47.8408 38.186 47.9221 38.0234C48.0034 37.8609 48.0462 37.6818 48.0471 37.5V28.125C48.0471 23.4578 50.896 22.1561 53.2034 21.8672V58.125C53.2034 58.4358 53.3268 58.7339 53.5466 58.9536C53.7664 59.1734 54.0644 59.2969 54.3752 59.2969C54.686 59.2969 54.9841 59.1734 55.2039 58.9536C55.4237 58.7339 55.5471 58.4358 55.5471 58.125V20.625C55.5471 20.3142 55.4237 20.0161 55.2039 19.7964C54.9841 19.5766 54.686 19.4531 54.3752 19.4531ZM16.8752 3.04688H45.0002C45.1867 3.04706 45.3654 3.1212 45.4972 3.25302C45.629 3.38484 45.7032 3.56358 45.7034 3.75V7.26047H16.1721V3.75C16.1723 3.56358 16.2464 3.38484 16.3783 3.25302C16.5101 3.1212 16.6888 3.04706 16.8752 3.04688ZM7.62388 10.2023C7.60044 7.93219 10.4377 6.75879 12.0259 8.37902L13.8284 10.1816V17.4748L8.37915 12.0255C8.13895 11.7867 7.94852 11.5026 7.81888 11.1896C7.68923 10.8766 7.62295 10.5411 7.62388 10.2023ZM11.3459 21.6581C12.3056 20.6579 14.0323 20.6579 14.9919 21.6581L20.2952 26.9614C22.6241 29.4626 19.1407 32.9372 16.6492 30.6075L11.3459 25.3042C10.8631 24.8203 10.592 24.1647 10.592 23.4812C10.592 22.7976 10.8631 22.142 11.3459 21.6581ZM21.9525 25.3042L20.6788 24.0304C20.9212 21.7005 21.9673 19.5277 23.6375 17.8852C25.3076 16.2427 27.4976 15.233 29.8312 15.0296C32.1648 14.8261 34.4965 15.4416 36.4256 16.7704C38.3548 18.0991 39.7611 20.0581 40.403 22.3109C41.0449 24.5637 40.8823 26.9697 39.9432 29.1157C39.004 31.2617 37.3469 33.0137 35.2565 34.0707C33.1662 35.1278 30.7729 35.424 28.4879 34.9085C26.2028 34.393 24.1686 33.0978 22.7346 31.2456C23.275 30.3069 23.4912 29.2163 23.3498 28.1424C23.2085 27.0685 22.7174 26.0711 21.9525 25.3042ZM11.3459 32.9081C12.3056 31.9079 14.0323 31.9079 14.9919 32.9081L20.2952 38.2114C22.6241 40.7126 19.1407 44.1872 16.6492 41.8575L11.3459 36.5542C10.8631 36.0703 10.592 35.4147 10.592 34.7312C10.592 34.0476 10.8631 33.392 11.3459 32.9081ZM10.4084 43.2206C11.3681 42.2204 13.0948 42.2204 14.0544 43.2206L19.3577 48.5239C21.6866 51.0251 18.2032 54.4997 15.7117 52.17L10.4084 46.8667C9.92564 46.3828 9.65454 45.7272 9.65454 45.0437C9.65454 44.3601 9.92564 43.7045 10.4084 43.2206ZM16.1721 56.25V55.0781C16.6151 55.2052 17.0738 55.2696 17.5347 55.2695C18.2164 55.2698 18.8907 55.1283 19.5149 54.854C20.139 54.5797 20.6993 54.1786 21.1601 53.6763C21.621 53.1739 21.9723 52.5812 22.1919 51.9358C22.4114 51.2904 22.4944 50.6063 22.4354 49.9272H38.2034V56.9531H16.8752C16.6888 56.9529 16.5101 56.8788 16.3783 56.747C16.2464 56.6152 16.1723 56.4364 16.1721 56.25ZM41.6721 39.9375C40.5975 40.7475 39.725 41.7954 39.1232 42.999C38.5214 44.2026 38.2066 45.5293 38.2034 46.875V47.5828H21.6062C21.4322 47.326 21.2342 47.0862 21.015 46.8667L19.0678 44.9195C19.9837 44.808 20.8499 44.4413 21.5674 43.8612C22.2849 43.2811 22.8248 42.511 23.1256 41.6387C23.4264 40.7665 23.4759 39.8272 23.2685 38.9282C23.061 38.0291 22.605 37.2065 21.9525 36.5542L19.0678 33.6695C19.7888 33.5837 20.4815 33.3378 21.0952 32.9496C22.8663 35.1088 25.3136 36.608 28.0418 37.205C30.7699 37.8019 33.6197 37.4618 36.1307 36.2397C38.6418 35.0175 40.6676 32.9845 41.8809 30.4691C43.0942 27.9538 43.4242 25.1028 42.8176 22.3768C42.211 19.6508 40.7032 17.2088 38.5378 15.4453C36.3723 13.6818 33.6756 12.6997 30.8832 12.6576C28.0908 12.6155 25.3658 13.516 23.1482 15.2135C20.9306 16.911 19.35 19.3064 18.6615 22.013C18.6615 22.013 16.3383 19.7109 16.1721 19.582V9.60422H45.7034V36.9141L41.6721 39.9375Z" fill="#F6836B"></path><path d="M29.6485 26.25H31.6407C32.081 26.2655 32.4981 26.4513 32.8041 26.7683C33.1101 27.0853 33.2811 27.5086 33.2811 27.9492C33.2811 28.3898 33.1101 28.8132 32.8041 29.1301C32.4981 29.4471 32.081 29.6329 31.6407 29.6484H28.6865C28.2772 29.6578 27.9834 29.2603 28.0434 28.8695C28.049 28.5587 27.9308 28.2584 27.715 28.0347C27.4992 27.811 27.2033 27.6822 26.8925 27.6766C26.5817 27.6711 26.2814 27.7892 26.0577 28.005C25.834 28.2209 25.7052 28.5167 25.6996 28.8275L25.6974 28.9489C25.6903 29.346 25.7623 29.7405 25.9093 30.1094C26.0563 30.4783 26.2753 30.8143 26.5536 31.0976C26.8319 31.3809 27.1638 31.6059 27.53 31.7595C27.8962 31.9131 28.2894 31.9922 28.6865 31.9922H29.5313V32.6953C29.5313 33.0061 29.6548 33.3042 29.8746 33.524C30.0943 33.7437 30.3924 33.8672 30.7032 33.8672C31.014 33.8672 31.3121 33.7437 31.5318 33.524C31.7516 33.3042 31.8751 33.0061 31.8751 32.6953V31.9848C32.9145 31.9091 33.8845 31.4351 34.583 30.6617C35.2815 29.8882 35.6545 28.8751 35.6243 27.8334C35.5941 26.7916 35.1629 25.8018 34.4208 25.0702C33.6786 24.3385 32.6827 23.9216 31.6407 23.9062H29.6485C29.2134 23.9062 28.7961 23.7334 28.4884 23.4257C28.1807 23.118 28.0079 22.7007 28.0079 22.2656C28.0079 21.8305 28.1807 21.4132 28.4884 21.1055C28.7961 20.7979 29.2134 20.625 29.6485 20.625H32.556C32.9688 20.6595 33.1836 20.8838 33.2006 21.2981C33.194 21.4519 33.2177 21.6054 33.2704 21.75C33.3231 21.8946 33.4038 22.0274 33.5079 22.1408C33.718 22.3698 34.0105 22.506 34.321 22.5193C34.6315 22.5327 34.9346 22.4222 35.1637 22.212C35.3927 22.0019 35.5289 21.7094 35.5422 21.3989C35.5595 20.9959 35.4951 20.5936 35.3529 20.2162C35.2106 19.8388 34.9935 19.4941 34.7145 19.2028C34.4355 18.9115 34.1004 18.6797 33.7295 18.5213C33.3585 18.363 32.9594 18.2813 32.556 18.2812H31.8751V17.5781C31.8751 17.2673 31.7516 16.9693 31.5318 16.7495C31.3121 16.5297 31.014 16.4062 30.7032 16.4062C30.3924 16.4062 30.0943 16.5297 29.8746 16.7495C29.6548 16.9693 29.5313 17.2673 29.5313 17.5781V18.2842C28.4856 18.3153 27.494 18.7565 26.7708 19.5125C26.0476 20.2685 25.6509 21.2787 25.6663 22.3248C25.6817 23.3709 26.108 24.369 26.8531 25.1034C27.5982 25.8379 28.6023 26.2497 29.6485 26.25Z" fill="#F6836B"></path></svg>