<svg xmlns="http://www.w3.org/2000/svg" width="552" height="408" viewBox="0 0 552 408" fill="none"><path d="M299.246 344.107C291.681 344.107 291.883 350.915 285.397 350.911C278.912 350.907 277.159 346.12 277.16 339.514L277.174 318.937C277.175 318.086 277.008 317.244 276.682 316.459C276.357 315.673 275.88 314.959 275.278 314.358C274.676 313.756 273.961 313.279 273.174 312.954C272.388 312.629 271.545 312.461 270.693 312.461L251.488 312.392C244.87 312.392 240.074 310.644 240.074 304.168C240.074 297.691 246.889 297.893 246.888 290.34C246.888 283.259 242.693 278.812 233.238 278.82C223.783 278.829 219.599 283.277 219.603 290.356C219.603 297.91 226.428 297.708 226.428 304.18C226.428 310.651 221.641 312.407 215.014 312.411L188.584 312.423C187.732 312.423 186.888 312.59 186.102 312.915C185.315 313.241 184.6 313.718 183.997 314.319C183.395 314.92 182.917 315.634 182.591 316.419C182.265 317.205 182.097 318.047 182.097 318.897L182.058 400.88C182.058 402.597 182.741 404.244 183.957 405.459C185.172 406.674 186.821 407.358 188.541 407.36L270.648 407.397C272.367 407.397 274.016 406.715 275.232 405.502C276.449 404.288 277.133 402.642 277.134 400.925L277.145 375.934C277.145 369.327 278.904 364.537 285.391 364.537C291.879 364.537 291.671 371.348 299.233 371.353C306.324 371.353 310.782 367.175 310.787 357.737C310.792 348.298 306.339 344.111 299.246 344.107Z" fill="white" stroke="#009EDB" stroke-linecap="round" stroke-linejoin="round"></path><path d="M372.154 400.912L372.19 318.929C372.191 317.213 371.508 315.566 370.293 314.352C369.078 313.138 367.429 312.455 365.71 312.454L344.006 312.443C337.39 312.443 332.592 310.683 332.6 304.209C332.607 297.735 339.421 297.939 339.426 290.387C339.426 283.308 335.24 278.854 325.787 278.851C316.334 278.849 312.145 283.293 312.139 290.37C312.139 297.923 318.958 297.723 318.953 304.197C318.948 310.671 314.156 312.422 307.539 312.422L283.607 312.409C282.755 312.408 281.912 312.575 281.125 312.9C280.338 313.225 279.623 313.702 279.021 314.303C278.419 314.904 277.941 315.617 277.615 316.403C277.289 317.188 277.122 318.03 277.122 318.88L277.111 339.53C277.111 346.138 278.862 350.927 285.347 350.927C291.832 350.927 291.631 344.122 299.195 344.125C306.287 344.125 310.743 348.31 310.732 357.75C310.721 367.191 306.269 371.368 299.179 371.368C291.614 371.368 291.815 364.553 285.336 364.553C278.857 364.553 277.095 369.332 277.09 375.95L277.079 400.868C277.078 402.585 277.761 404.232 278.977 405.446C280.193 406.661 281.842 407.344 283.561 407.344L365.668 407.384C367.387 407.383 369.036 406.701 370.252 405.487C371.468 404.274 372.152 402.628 372.154 400.912Z" fill="#EFF7FD" stroke="#009EDB" stroke-linecap="round" stroke-linejoin="round"></path><path d="M365.708 123.683L283.601 123.647C281.882 123.646 280.233 124.328 279.016 125.541C277.8 126.754 277.117 128.4 277.116 130.117L277.105 151.788C277.105 158.394 275.342 163.185 268.858 163.177C262.374 163.17 262.578 156.366 255.015 156.361C247.925 156.361 243.464 160.541 243.462 169.98C243.459 179.418 247.911 183.6 254.998 183.607C262.562 183.607 262.362 176.798 268.846 176.803C275.33 176.808 277.084 181.593 277.084 188.2L277.07 212.096C277.07 212.946 277.237 213.788 277.562 214.574C277.888 215.359 278.365 216.073 278.967 216.675C279.569 217.276 280.284 217.753 281.07 218.079C281.857 218.404 282.7 218.571 283.552 218.571L304.232 218.582C310.85 218.582 315.646 216.833 315.646 210.358C315.646 203.883 308.831 204.084 308.833 196.533C308.833 189.451 313.024 185.002 322.48 185.013C331.935 185.024 336.117 189.469 336.117 196.549C336.117 204.102 329.292 203.901 329.292 210.372C329.292 216.842 334.079 218.601 340.706 218.605L365.662 218.617C367.382 218.617 369.032 217.935 370.248 216.721C371.464 215.507 372.148 213.861 372.149 212.144L372.188 130.161C372.188 128.444 371.505 126.798 370.29 125.584C369.075 124.369 367.427 123.686 365.708 123.683Z" fill="#EFF7FD" stroke="#009EDB" stroke-linecap="round" stroke-linejoin="round"></path><path d="M215.059 312.319C221.676 312.319 226.473 310.572 226.473 304.097C226.473 297.621 219.655 297.82 219.659 290.269C219.659 283.188 223.853 278.741 233.307 278.749C242.761 278.758 246.946 283.205 246.945 290.283C246.945 297.838 240.12 297.636 240.12 304.109C240.12 310.582 244.906 312.337 251.534 312.341H270.653C272.372 312.341 274.021 311.66 275.237 310.447C276.453 309.233 277.137 307.588 277.139 305.871L277.15 280.879C277.15 274.273 278.909 269.483 285.396 269.483C291.884 269.483 291.676 276.292 299.238 276.298C306.329 276.298 310.787 272.121 310.792 262.681C310.797 253.242 306.343 249.058 299.255 249.054C291.69 249.054 291.891 255.862 285.406 255.858C278.921 255.854 277.167 251.066 277.168 244.461L277.183 223.886C277.184 223.036 277.017 222.194 276.691 221.408C276.366 220.622 275.889 219.908 275.287 219.306C274.685 218.705 273.97 218.228 273.183 217.902C272.397 217.577 271.553 217.409 270.702 217.409L250.02 217.397C243.404 217.397 238.606 219.146 238.606 225.621C238.606 232.096 245.423 231.897 245.42 239.448C245.42 246.529 241.227 250.977 231.771 250.967C222.316 250.957 218.132 246.511 218.135 239.434C218.135 231.878 224.96 232.082 224.96 225.609C224.96 219.136 220.173 217.38 213.546 217.376L188.592 217.364C187.74 217.364 186.897 217.531 186.11 217.856C185.323 218.182 184.608 218.659 184.005 219.26C183.403 219.861 182.925 220.575 182.599 221.361C182.273 222.147 182.106 222.989 182.106 223.839L182.066 305.822C182.067 307.539 182.75 309.186 183.965 310.401C185.181 311.616 186.829 312.3 188.549 312.302L215.059 312.319Z" fill="#009EDB" stroke="#009EDB" stroke-linecap="round" stroke-linejoin="round"></path><path d="M0.613646 407.386H551.386" stroke="#402500" stroke-linecap="round" stroke-linejoin="round"></path><path d="M376.549 255.7C377.913 254.292 379.121 252.74 380.151 251.073C380.745 250.216 381.592 249.566 382.574 249.213C383.875 248.532 385.133 247.769 386.338 246.93C386.076 247.006 381.89 248.22 380.871 248.542C379.16 249.301 377.385 249.907 375.567 250.353C373.294 250.763 372.376 249.338 372.92 249.139C374.529 248.549 376.088 247.831 377.583 246.993C378.538 246.353 379.553 245.809 380.615 245.368C381.161 245.17 382.21 244.773 383.273 244.363C382.33 244.238 381.38 244.167 380.428 244.151C379.894 244.165 378.602 244.674 376.528 245.082C374.454 245.49 373.596 245.158 373.186 243.693C375.546 243.408 379.66 241.436 380.118 241.436C380.576 241.436 382.839 241.076 384.367 240.927C385.574 240.698 386.805 240.616 388.032 240.682C388.267 240.818 392.492 243.585 399.709 247.545C411.436 247.545 433.177 238.006 439.365 237.076L455.777 209.871L471.356 222.834C463.244 232.82 448.224 249.665 446.933 250.433C445.642 251.201 407.737 255.221 401.24 255.73C397.823 257.28 395.339 256.87 393.562 255.817C391.785 254.763 388.692 252.554 388.692 252.554C387.632 253.047 386.636 253.664 385.723 254.393C385.32 255.282 384.979 256.198 384.704 257.135C384.459 257.625 384.099 258.05 383.657 258.373C383.214 258.697 382.7 258.91 382.158 258.995C382.158 258.995 382.554 256.563 382.692 256.104C382.823 255.206 383.141 254.344 383.623 253.574C383.97 253.128 384.865 251.849 385.598 250.769C384.79 251.083 384.023 251.491 383.311 251.985C382.528 252.543 382.429 253.287 381.237 254.726C380.678 255.389 379.911 255.845 379.062 256.021C378.212 256.198 377.327 256.085 376.549 255.7Z" fill="#EFF7FD"></path><path d="M386.749 243.043C386.749 243.043 384.971 243.726 383.27 244.36C382.202 244.768 381.159 245.165 380.611 245.364C379.549 245.805 378.534 246.349 377.58 246.989C376.085 247.827 374.525 248.545 372.916 249.135C372.371 249.334 373.284 250.76 375.563 250.35C377.381 249.902 379.156 249.296 380.868 248.538C381.886 248.216 386.073 247.002 386.334 246.926" stroke="#2647A3" stroke-linecap="round" stroke-linejoin="round"></path><path d="M387.754 245.959C387.754 245.959 387.17 246.367 386.35 246.926H386.338C385.132 247.765 383.875 248.527 382.574 249.209C381.592 249.562 380.745 250.212 380.151 251.069C379.12 252.736 377.912 254.288 376.548 255.696C377.326 256.079 378.21 256.19 379.059 256.012C379.907 255.835 380.672 255.378 381.231 254.716C382.424 253.277 382.523 252.532 383.305 251.974C384.016 251.48 384.784 251.072 385.592 250.759H385.604" stroke="#2647A3" stroke-linecap="round" stroke-linejoin="round"></path><path d="M386.749 249.082C386.749 249.082 386.226 249.852 385.593 250.758C384.856 251.837 383.967 253.114 383.618 253.563C383.136 254.333 382.818 255.194 382.687 256.093C382.55 256.552 382.153 258.984 382.153 258.984C382.695 258.899 383.209 258.685 383.651 258.362C384.094 258.038 384.454 257.614 384.699 257.124C384.975 256.187 385.315 255.271 385.718 254.381C386.631 253.652 387.627 253.035 388.687 252.543C388.687 252.543 391.767 254.739 393.557 255.805C395.346 256.871 397.818 257.268 401.235 255.718C407.732 255.211 445.624 251.191 446.928 250.422C448.231 249.652 463.24 232.807 471.351 222.822L455.772 209.859L439.36 237.064C433.173 237.995 411.433 247.533 399.704 247.533C392.485 243.577 388.262 240.811 388.027 240.671C386.8 240.605 385.569 240.687 384.362 240.916C382.835 241.064 380.587 241.425 380.113 241.425C379.639 241.425 375.541 243.396 373.181 243.682C373.591 245.145 374.45 245.48 376.523 245.07C378.596 244.661 379.889 244.154 380.423 244.14C381.375 244.155 382.325 244.226 383.268 244.352" stroke="#402500" stroke-linecap="round" stroke-linejoin="round"></path><path d="M470.797 199.155C470.797 199.155 462.843 199.35 457.961 202.251C451.141 210.444 442.268 226.859 442.268 226.859C442.268 226.859 451.32 236.163 459.082 240.504C459.082 240.504 470.262 230.685 477.51 223.035L470.797 199.155Z" fill="#009EDB"></path><path d="M468.828 230.76L477.375 222.895C477.412 222.857 477.462 222.837 477.515 222.837C477.567 222.837 477.618 222.857 477.655 222.895C477.692 222.932 477.713 222.982 477.713 223.034C477.713 223.087 477.692 223.137 477.655 223.174L469.708 231.637C469.653 231.697 469.586 231.745 469.512 231.78C469.438 231.814 469.358 231.833 469.276 231.837C469.195 231.84 469.113 231.827 469.037 231.799C468.96 231.771 468.89 231.728 468.83 231.673C468.77 231.618 468.721 231.551 468.687 231.477C468.652 231.404 468.633 231.324 468.63 231.242C468.626 231.161 468.639 231.079 468.667 231.003C468.695 230.926 468.738 230.856 468.793 230.796C468.804 230.783 468.815 230.771 468.828 230.76Z" fill="#2647A3"></path><path d="M469.108 230.598L480.449 228.057C480.499 228.045 480.552 228.054 480.596 228.08C480.64 228.106 480.673 228.149 480.686 228.198C480.699 228.248 480.692 228.301 480.667 228.346C480.642 228.391 480.6 228.424 480.551 228.438L469.428 231.797C469.27 231.846 469.1 231.831 468.954 231.754C468.809 231.677 468.699 231.546 468.65 231.389C468.602 231.232 468.617 231.062 468.694 230.916C468.771 230.77 468.902 230.661 469.06 230.612C469.075 230.606 469.091 230.601 469.108 230.598Z" fill="#2647A3"></path><path d="M457.962 202.251C451.142 210.444 442.269 226.859 442.269 226.859C442.269 226.859 451.321 236.162 459.083 240.504C459.083 240.504 463.904 236.27 469.262 231.198" stroke="#402500" stroke-linecap="round" stroke-linejoin="round"></path><path d="M470.806 199.39C470.806 199.39 469.98 199.432 468.752 199.598C468.138 199.662 467.423 199.79 466.658 199.915C465.893 200.04 465.094 200.243 464.289 200.405L463.112 200.741C462.727 200.863 462.337 200.944 461.982 201.083C461.272 201.363 460.601 201.601 460.045 201.839L458.28 202.778L458.197 202.822C458.052 202.897 457.883 202.912 457.726 202.864C457.57 202.815 457.44 202.707 457.363 202.563C457.286 202.419 457.269 202.25 457.316 202.094C457.362 201.937 457.469 201.806 457.613 201.727L457.643 201.711L459.607 200.806C460.21 200.586 460.928 200.376 461.686 200.128C462.067 200.006 462.472 199.941 462.877 199.841L464.104 199.567C464.938 199.444 465.766 199.285 466.549 199.199C467.332 199.113 468.062 199.029 468.69 199C469.945 198.905 470.785 198.91 470.785 198.91H470.793C470.855 198.911 470.914 198.936 470.958 198.98C471.001 199.024 471.026 199.083 471.026 199.145C471.028 199.207 471.006 199.266 470.965 199.312C470.924 199.358 470.867 199.386 470.806 199.39Z" fill="#2647A3"></path><path d="M428.323 377.839L429.339 392.759L441.97 394.166L440.487 371.847L428.323 377.839Z" fill="white" stroke="#402500" stroke-linecap="round" stroke-linejoin="round"></path><path d="M443.989 404.118H400.135V407.387H443.989V404.118Z" fill="#EFF7FD" stroke="#402500" stroke-linecap="round" stroke-linejoin="round"></path><path d="M410.704 397.951C410.76 397.302 410.965 396.675 411.303 396.117C411.642 395.56 412.104 395.089 412.655 394.739C414.438 393.82 425.062 387.857 426.441 387.055C427.821 386.252 428.452 385.16 429.6 385.39C430.102 385.589 430.54 385.919 430.869 386.345C431.199 386.772 431.407 387.279 431.471 387.813C431.536 388.348 431.455 388.89 431.238 389.382C431.02 389.875 430.673 390.3 430.234 390.612C427.534 392.735 412.255 400.017 412.255 400.017L410.704 397.951Z" fill="#EFF7FD" stroke="#402500" stroke-linecap="round" stroke-linejoin="round"></path><path d="M414.253 400.001C413.849 398.682 413.618 398.096 415.17 396.834C416.721 395.571 425.338 391.564 427.348 390.239C429.359 388.915 430.278 388.863 432.748 390.525C435.219 392.187 436.842 391.758 439.601 392.159C442.36 392.559 442.641 391.986 443.219 393.536C443.797 395.086 443.994 400.848 443.994 404.115H412.657L414.253 400.001Z" fill="white" stroke="#402500" stroke-linecap="round" stroke-linejoin="round"></path><path d="M400.135 404.118C400.231 403.359 400.492 402.63 400.898 401.981C401.305 401.333 401.848 400.78 402.49 400.363C405.131 399.04 407.856 397.89 410.647 396.921C412.255 396.291 414.84 399.732 415.587 404.119H400.135V404.118Z" fill="white" stroke="#402500" stroke-linecap="round" stroke-linejoin="round"></path><path d="M418.856 396.346C418.937 396.473 418.991 396.615 419.016 396.764C419.041 396.912 419.036 397.064 419.002 397.211C418.968 397.357 418.905 397.496 418.817 397.618C418.728 397.74 418.617 397.843 418.488 397.922C418.36 398.002 418.218 398.055 418.069 398.08C417.921 398.105 417.769 398.1 417.622 398.066C417.475 398.032 417.337 397.969 417.214 397.881C417.092 397.793 416.988 397.682 416.909 397.554L414.293 393.344C414.213 393.216 414.159 393.074 414.135 392.925C414.11 392.776 414.115 392.624 414.149 392.477C414.183 392.331 414.246 392.192 414.334 392.07C414.422 391.947 414.533 391.843 414.661 391.764C414.789 391.684 414.932 391.631 415.081 391.606C415.229 391.582 415.381 391.587 415.528 391.621C415.675 391.655 415.814 391.718 415.936 391.805C416.059 391.893 416.163 392.004 416.242 392.132L418.856 396.346Z" fill="white" stroke="#402500" stroke-linecap="round" stroke-linejoin="round"></path><path d="M423.767 393.397C423.847 393.525 423.902 393.667 423.927 393.815C423.952 393.964 423.947 394.116 423.913 394.262C423.878 394.409 423.815 394.547 423.727 394.669C423.639 394.791 423.527 394.895 423.399 394.973C423.271 395.053 423.129 395.107 422.98 395.132C422.832 395.157 422.68 395.152 422.533 395.118C422.386 395.084 422.248 395.021 422.125 394.933C422.003 394.845 421.899 394.734 421.821 394.606L419.205 390.396C419.125 390.268 419.071 390.126 419.047 389.977C419.022 389.829 419.027 389.676 419.061 389.53C419.095 389.383 419.158 389.244 419.246 389.122C419.334 388.999 419.445 388.895 419.573 388.815C419.832 388.655 420.144 388.604 420.441 388.673C420.738 388.741 420.995 388.925 421.157 389.183L423.767 393.397Z" fill="white" stroke="#402500" stroke-linecap="round" stroke-linejoin="round"></path><path d="M428.591 391.067C428.663 391.199 428.708 391.344 428.724 391.493C428.74 391.643 428.726 391.794 428.682 391.939C428.639 392.083 428.568 392.217 428.473 392.334C428.378 392.45 428.26 392.547 428.128 392.618C427.996 392.691 427.851 392.736 427.701 392.753C427.551 392.769 427.4 392.755 427.255 392.713C427.111 392.67 426.976 392.6 426.859 392.505C426.742 392.41 426.645 392.293 426.574 392.161L424.201 387.811C424.056 387.544 424.023 387.23 424.109 386.938C424.195 386.647 424.394 386.402 424.662 386.257C424.794 386.184 424.94 386.139 425.09 386.123C425.24 386.107 425.392 386.12 425.537 386.163C425.682 386.205 425.817 386.276 425.934 386.371C426.052 386.466 426.149 386.583 426.221 386.715L428.591 391.067Z" fill="white" stroke="#402500" stroke-linecap="round" stroke-linejoin="round"></path><path d="M504.526 377.494L515.308 387.872L525.618 380.449L509.514 364.897L504.526 377.494Z" fill="white" stroke="#402500" stroke-linecap="round" stroke-linejoin="round"></path><path d="M504.985 404.211C504.59 403.692 504.321 403.09 504.197 402.45C504.074 401.81 504.1 401.15 504.273 400.522C504.977 398.645 508.845 387.106 509.326 385.587C509.807 384.067 509.543 382.835 510.554 382.236C511.059 382.048 511.605 381.999 512.135 382.095C512.666 382.19 513.16 382.427 513.568 382.78C513.975 383.132 514.279 383.588 514.449 384.099C514.619 384.609 514.648 385.156 514.532 385.682C513.957 389.066 507.527 404.702 507.527 404.702L504.985 404.211Z" fill="#EFF7FD" stroke="#402500" stroke-linecap="round" stroke-linejoin="round"></path><path d="M508.993 403.351C507.805 402.644 507.241 402.37 507.543 400.389C507.845 398.407 511.534 389.665 512.137 387.339C512.74 385.013 513.384 384.356 516.331 383.932C519.277 383.508 520.193 382.103 522.509 380.552C524.825 379.002 524.647 378.387 526.117 379.148C527.588 379.909 531.606 384.05 533.804 386.47L513.599 406.04L508.993 403.351Z" fill="white" stroke="#402500" stroke-linecap="round" stroke-linejoin="round"></path><path d="M495.988 404.202C496.084 403.443 496.345 402.714 496.752 402.066C497.158 401.417 497.701 400.864 498.343 400.446C500.541 399.209 502.823 398.127 505.172 397.206C506.781 396.576 509.753 399.842 510.103 404.205L495.988 404.202Z" fill="white" stroke="#402500" stroke-linecap="round" stroke-linejoin="round"></path><path d="M511.415 392.733C511.56 392.774 511.696 392.844 511.814 392.938C511.932 393.031 512.03 393.147 512.103 393.279C512.176 393.411 512.221 393.556 512.238 393.706C512.254 393.855 512.241 394.007 512.198 394.151C512.157 394.296 512.088 394.431 511.994 394.549C511.901 394.667 511.784 394.766 511.652 394.838C511.521 394.911 511.375 394.957 511.226 394.974C511.076 394.99 510.924 394.977 510.779 394.934L506.011 393.568C505.866 393.526 505.731 393.457 505.612 393.363C505.494 393.269 505.396 393.153 505.322 393.021C505.249 392.889 505.203 392.744 505.186 392.594C505.169 392.444 505.182 392.292 505.223 392.148C505.308 391.855 505.506 391.608 505.773 391.461C506.04 391.314 506.354 391.278 506.647 391.362L511.415 392.733Z" fill="white" stroke="#402500" stroke-linecap="round" stroke-linejoin="round"></path><path d="M513.617 387.314C513.759 387.364 513.891 387.441 514.003 387.541C514.115 387.641 514.207 387.763 514.272 387.899C514.337 388.034 514.374 388.181 514.382 388.332C514.39 388.482 514.368 388.632 514.318 388.774C514.269 388.916 514.192 389.047 514.092 389.16C513.992 389.272 513.87 389.364 513.734 389.429C513.598 389.494 513.451 389.532 513.301 389.54C513.15 389.548 512.999 389.526 512.857 389.476L508.174 387.843C508.032 387.793 507.901 387.715 507.788 387.615C507.676 387.515 507.585 387.393 507.519 387.258C507.454 387.122 507.416 386.975 507.408 386.825C507.399 386.674 507.421 386.524 507.471 386.382C507.52 386.239 507.598 386.108 507.698 385.996C507.799 385.883 507.92 385.792 508.056 385.726C508.192 385.661 508.34 385.623 508.491 385.614C508.642 385.606 508.792 385.627 508.935 385.677L513.617 387.314Z" fill="white" stroke="#402500" stroke-linecap="round" stroke-linejoin="round"></path><path d="M514.288 404.117L533.803 386.47L536.001 388.894L515.548 407.385H495.987V404.115L514.288 404.117Z" fill="#EFF7FD" stroke="#402500" stroke-linecap="round" stroke-linejoin="round"></path><path d="M458.509 291.898C458.509 291.898 449.959 337.913 449.224 341.223C448.781 343.599 448.986 346.05 449.819 348.319C450.652 350.588 452.082 352.591 453.958 354.118C458.631 357.763 509.287 384.333 509.287 384.333C512.852 380.192 515.638 375.443 517.51 370.312C501.123 356.237 476.08 337.515 476.08 337.515C476.08 337.515 499.283 289.01 501.167 284.33C503.051 279.65 503.908 270.245 501.761 264.423L458.509 291.898Z" fill="#EFF7FD" stroke="#009EDB" stroke-linecap="round" stroke-linejoin="round"></path><path d="M477.372 286.901L468.717 341.445L514.875 376.24" stroke="#402500" stroke-width="0.5" stroke-linecap="round" stroke-linejoin="round"></path><path d="M507.281 383.115C507.281 383.115 513.557 374.882 515.135 368.261" stroke="#402500" stroke-width="0.5" stroke-linecap="round" stroke-linejoin="round"></path><path d="M450.652 276.067C450.652 276.067 414.52 305.875 411.829 307.943C409.961 309.481 408.543 311.492 407.722 313.766C406.902 316.04 406.709 318.492 407.165 320.866C408.407 326.655 426.526 379.995 426.526 379.995C431.925 379.105 437.118 377.248 441.854 374.512C438.334 353.217 434.814 322.308 434.814 322.308C434.814 322.308 483.784 299.98 488.235 297.602C492.687 295.223 499.39 288.557 501.49 282.716L450.652 276.067Z" fill="white" stroke="#009EDB" stroke-linecap="round" stroke-linejoin="round"></path><path d="M468.331 284.324L426.634 320.607L436.017 377.37" stroke="#402500" stroke-width="0.5" stroke-linecap="round" stroke-linejoin="round"></path><path d="M425.777 377.772C425.777 377.772 435.882 375.479 441.352 371.418" stroke="#402500" stroke-width="0.5" stroke-linecap="round" stroke-linejoin="round"></path><path d="M445.01 187.62C445.01 187.62 449.877 192.277 451.429 195.321C452.208 198.425 452.727 201.589 452.982 204.779L473.223 190.564L465.823 183.667L456.768 177.334L445.01 187.62Z" fill="white"></path><path d="M456.762 177.334L445.01 187.62C445.01 187.62 449.877 192.277 451.429 195.321C451.896 197.182 452.227 198.927 452.459 200.401C458.559 193.818 461.226 185.06 462.172 181.119L456.762 177.334Z" fill="#EFF7FD"></path><path d="M445.01 187.62C445.01 187.62 449.877 192.277 451.429 195.321C452.208 198.425 452.727 201.589 452.982 204.779L473.223 190.564L465.823 183.667L456.768 177.334L445.01 187.62Z" stroke="#402400" stroke-linecap="round" stroke-linejoin="round"></path><path d="M460.699 178.841C460.682 178.861 460.66 178.878 460.636 178.89C460.144 179.251 459.605 179.543 459.033 179.759C455.046 189.844 441.952 192.375 440.063 192.375C438.174 192.375 438.274 190.824 437.976 188.864C437.654 186.892 436.312 187.053 435.69 186.383C435.235 185.63 434.963 184.78 434.895 183.903C433.981 184.044 433.048 183.821 432.296 183.283V182.142C432.295 181.807 432.162 181.486 431.925 181.249C431.687 181.011 431.366 180.878 431.03 180.876C430.517 180.848 430.017 180.706 429.566 180.461C429.115 180.217 428.724 179.875 428.421 179.461C427.947 178.58 428.532 178.146 430.284 175.206C432.035 172.266 429.897 172.142 430.469 162.256C430.705 157.974 432.454 153.915 435.404 150.799C438.354 147.683 442.316 145.713 446.584 145.238C456.088 143.998 463.581 147.309 467.08 157.915C470.414 167.987 465.196 176.026 460.699 178.841Z" fill="white"></path><path d="M435.206 172.882C435.847 172.734 436.184 171.825 435.959 170.852C435.734 169.878 435.031 169.209 434.39 169.356C433.749 169.504 433.412 170.413 433.637 171.387C433.863 172.361 434.565 173.03 435.206 172.882Z" fill="#402500"></path><path d="M459.034 179.759C455.046 189.844 441.952 192.375 440.063 192.375C438.174 192.375 438.274 190.824 437.977 188.864C437.654 186.892 436.312 187.053 435.69 186.383C435.235 185.63 434.963 184.78 434.895 183.903C433.981 184.044 433.048 183.821 432.297 183.283V182.142C432.296 181.807 432.162 181.485 431.924 181.248C431.687 181.011 431.365 180.877 431.029 180.876C430.516 180.848 430.016 180.706 429.565 180.461C429.114 180.217 428.723 179.875 428.42 179.461C427.946 178.58 428.531 178.146 430.283 175.206C432.034 172.266 429.896 172.142 430.468 162.256C430.704 157.974 432.453 153.914 435.403 150.799C438.354 147.683 442.316 145.713 446.584 145.238C456.088 143.998 463.581 147.309 467.08 157.915C470.411 167.987 465.191 176.027 460.698 178.842" stroke="#402500" stroke-linecap="round" stroke-linejoin="round"></path><path d="M434.653 183.332L434.907 183.233C435.059 183.175 435.284 183.075 435.554 182.945C436.217 182.625 436.851 182.249 437.45 181.821C437.774 181.595 438.084 181.349 438.379 181.086C438.644 180.865 438.895 180.627 439.13 180.374L439.804 179.617L439.826 179.591C439.872 179.541 439.935 179.511 440.002 179.506C440.07 179.501 440.136 179.521 440.189 179.563C440.242 179.605 440.277 179.666 440.287 179.733C440.297 179.799 440.281 179.867 440.243 179.923L439.622 180.794C439.401 181.087 439.163 181.366 438.908 181.63C438.625 181.943 438.323 182.238 438.004 182.513C437.41 183.04 436.773 183.515 436.099 183.934C435.82 184.104 435.583 184.243 435.402 184.334L435.134 184.47C435.059 184.509 434.977 184.533 434.892 184.539C434.808 184.545 434.723 184.534 434.643 184.506C434.563 184.478 434.49 184.435 434.427 184.378C434.365 184.321 434.315 184.252 434.28 184.175C434.245 184.097 434.226 184.014 434.225 183.93C434.224 183.845 434.239 183.761 434.272 183.683C434.304 183.605 434.352 183.534 434.412 183.475C434.473 183.416 434.545 183.37 434.624 183.339L434.653 183.332Z" fill="#402500"></path><path d="M455.519 174.548L454.537 169.352L451.382 168.236L450.537 164.143V164.131C449.865 163.799 449.255 163.354 448.736 162.815C448.895 163.616 448.983 164.429 448.997 165.246C447.71 164.344 446.674 163.129 445.989 161.716C445.304 160.302 444.992 158.738 445.083 157.17C444.051 159.626 442.286 161.706 440.028 163.125C439.892 162.194 439.782 160.954 439.704 159.862C437.766 163.894 430.424 167.517 430.424 167.517C429.246 166.089 428.398 164.419 427.938 162.627C427.479 160.835 427.42 158.964 427.766 157.147C427.057 157.454 426.273 157.547 425.511 157.415C424.75 157.283 424.044 156.931 423.48 156.403C427.652 152.232 432.039 148.282 436.625 144.569C444.041 138.466 455.372 139.036 461.21 143.527L461.346 143.515C461.284 142.399 461.506 141.285 461.992 140.277C463.495 144.048 468.619 145.958 467.11 151.441C471.259 152.942 472.341 158.059 472.29 161.154C472.24 164.106 471.16 167.344 472.353 169.428L472.241 169.888C471.074 169.604 470.006 169.011 469.148 168.172C469.472 176.645 464.427 176.769 465.819 183.666C464.461 183.588 463.14 183.194 461.962 182.515C460.785 181.837 459.782 180.892 459.035 179.758C459.607 179.542 460.146 179.25 460.638 178.889C460.662 178.876 460.683 178.86 460.701 178.84C464.154 176.223 465.707 170.156 463.012 167.216C460.639 164.611 456.875 167.601 457.184 170.591V173.717L455.519 174.548Z" fill="#009EDB"></path><path d="M439.085 159.928C439.085 159.928 439.066 159.571 439.039 159.036C439.039 158.751 439.068 158.402 439.089 158.04C439.109 157.679 439.188 157.326 439.238 156.959C439.423 156.002 439.678 155.06 440.003 154.141C440.028 154.079 440.075 154.028 440.135 153.999C440.196 153.97 440.264 153.965 440.329 153.984C440.393 154.003 440.447 154.045 440.482 154.102C440.517 154.159 440.529 154.227 440.516 154.293V154.3C440.317 155.21 440.185 156.133 440.122 157.062C440.092 157.675 440.106 158.289 440.164 158.9C440.256 159.427 440.318 159.779 440.318 159.779C440.333 159.859 440.332 159.942 440.315 160.022C440.298 160.102 440.265 160.178 440.219 160.245C440.172 160.313 440.113 160.37 440.044 160.415C439.976 160.46 439.899 160.49 439.818 160.505C439.738 160.52 439.655 160.519 439.575 160.502C439.495 160.485 439.419 160.452 439.351 160.406C439.283 160.359 439.226 160.3 439.181 160.231C439.137 160.163 439.106 160.086 439.091 160.006C439.09 159.991 439.086 159.958 439.085 159.928Z" fill="#402500"></path><path d="M445.083 157.17C444.05 159.626 442.285 161.705 440.027 163.124C439.891 162.194 439.782 160.954 439.703 159.862" stroke="#402500" stroke-linecap="round" stroke-linejoin="round"></path><path d="M446.542 152.124C446.553 152.4 446.546 152.677 446.52 152.952C446.498 153.197 446.497 153.502 446.451 153.81C446.406 154.117 446.354 154.452 446.304 154.784C446.206 155.395 446.065 155.998 445.881 156.589C445.747 157.079 445.656 157.41 445.656 157.41C445.612 157.57 445.507 157.705 445.363 157.787C445.219 157.869 445.048 157.891 444.888 157.847C444.729 157.803 444.593 157.698 444.511 157.554C444.429 157.41 444.407 157.24 444.451 157.08C444.458 157.053 444.467 157.027 444.478 157.001L444.509 156.927C444.509 156.927 444.631 156.638 444.823 156.205C445.074 155.68 445.288 155.138 445.462 154.582C445.555 154.275 445.65 153.969 445.738 153.682C445.827 153.396 445.861 153.122 445.919 152.888C445.982 152.626 446.029 152.36 446.059 152.092C446.07 152.035 446.1 151.984 446.145 151.948C446.19 151.911 446.246 151.892 446.304 151.893C446.362 151.894 446.417 151.915 446.461 151.953C446.504 151.991 446.533 152.043 446.542 152.1V152.124Z" fill="#402500"></path><path d="M427.762 157.145C427.053 157.453 426.269 157.546 425.507 157.414C424.746 157.282 424.04 156.93 423.476 156.402C427.648 152.231 432.035 148.281 436.621 144.567C444.037 138.465 455.368 139.035 461.206 143.526" stroke="#402500" stroke-linecap="round" stroke-linejoin="round"></path><path d="M432.346 154.568C432.346 154.568 432.109 154.798 431.751 155.141L431.137 155.728C430.884 155.946 430.62 156.15 430.345 156.34C430.079 156.551 429.8 156.744 429.508 156.918L428.745 157.359L427.974 157.726C427.826 157.79 427.66 157.795 427.509 157.739C427.358 157.683 427.234 157.571 427.164 157.426C427.094 157.282 427.082 157.115 427.132 156.962C427.181 156.809 427.288 156.681 427.429 156.605C427.459 156.591 427.491 156.579 427.522 156.57L427.551 156.561L428.313 156.338L429.068 156.054C429.354 155.943 429.632 155.813 429.901 155.665C430.184 155.534 430.459 155.387 430.726 155.225L431.423 154.747L432.103 154.28C432.123 154.266 432.146 154.257 432.17 154.251C432.194 154.246 432.219 154.246 432.243 154.25C432.267 154.255 432.29 154.264 432.311 154.277C432.331 154.291 432.349 154.308 432.363 154.328C432.39 154.363 432.403 154.407 432.4 154.452C432.397 154.496 432.378 154.537 432.346 154.568Z" fill="#402500"></path><path d="M439.704 159.862C437.766 163.894 430.424 167.516 430.424 167.516C429.246 166.089 428.397 164.419 427.938 162.627C427.479 160.835 427.42 158.964 427.766 157.147" stroke="#402500" stroke-linecap="round" stroke-linejoin="round"></path><path d="M461.345 143.514C461.282 142.397 461.505 141.283 461.99 140.276C463.494 144.047 468.618 145.957 467.108 151.44C471.258 152.941 472.339 158.057 472.289 161.153C472.239 164.105 471.158 167.342 472.351 169.427C472.411 169.535 472.477 169.638 472.55 169.737" stroke="#402500" stroke-linecap="round" stroke-linejoin="round"></path><path d="M462.567 148.663C462.402 148.431 462.25 148.189 462.112 147.94C461.8 147.395 461.536 146.825 461.321 146.235C461.201 145.918 461.101 145.594 461.019 145.265C460.94 144.976 460.877 144.683 460.833 144.387C460.768 143.86 460.726 143.509 460.726 143.509C460.713 143.426 460.717 143.342 460.738 143.261C460.758 143.18 460.795 143.103 460.845 143.037C460.896 142.97 460.959 142.914 461.032 142.873C461.104 142.831 461.185 142.804 461.268 142.794C461.351 142.784 461.435 142.791 461.516 142.814C461.596 142.837 461.671 142.876 461.736 142.928C461.801 142.981 461.855 143.046 461.895 143.12C461.934 143.194 461.958 143.275 461.966 143.358C461.967 143.386 461.967 143.414 461.966 143.441V143.516C461.966 143.516 461.959 143.822 461.952 144.284C461.953 144.55 461.972 144.816 462.007 145.08C462.037 145.387 462.086 145.692 462.155 145.993C462.275 146.566 462.445 147.128 462.661 147.673C462.757 147.924 462.867 148.169 462.989 148.408C463.025 148.464 463.036 148.531 463.022 148.596C463.008 148.66 462.968 148.716 462.912 148.752C462.857 148.787 462.789 148.799 462.724 148.785C462.66 148.77 462.604 148.731 462.568 148.675L462.567 148.663Z" fill="#402500"></path><path d="M468.691 168.595C468.691 168.595 468.628 168.519 468.52 168.385C468.358 168.185 468.207 167.978 468.067 167.763C467.885 167.492 467.711 167.189 467.522 166.853C467.333 166.518 467.154 166.154 467 165.775C466.839 165.411 466.697 165.037 466.577 164.657C466.448 164.298 466.39 163.939 466.309 163.646C466.248 163.346 466.236 163.085 466.209 162.911L466.178 162.632C466.172 162.6 466.173 162.567 466.18 162.535C466.187 162.503 466.2 162.473 466.219 162.446C466.257 162.392 466.315 162.355 466.38 162.343C466.445 162.332 466.512 162.346 466.566 162.384C466.62 162.422 466.657 162.48 466.669 162.545L466.677 162.58L466.74 162.834C466.783 162.995 466.821 163.225 466.911 163.494C467.019 163.76 467.107 164.077 467.266 164.396C467.42 164.735 467.592 165.065 467.782 165.385C467.964 165.719 468.183 166.03 468.381 166.325C468.578 166.621 468.792 166.882 468.965 167.081C469.104 167.25 469.252 167.411 469.408 167.564L469.602 167.753L469.609 167.759C469.728 167.874 469.795 168.031 469.798 168.196C469.8 168.361 469.736 168.52 469.621 168.638C469.506 168.756 469.348 168.824 469.183 168.826C469.018 168.828 468.859 168.765 468.74 168.65C468.723 168.633 468.706 168.614 468.691 168.595Z" fill="#402500"></path><path d="M472.55 169.947C472.445 169.932 472.342 169.911 472.239 169.884C471.073 169.6 470.004 169.007 469.147 168.168" stroke="#402500" stroke-linecap="round" stroke-linejoin="round"></path><path d="M469.147 168.175C469.471 176.647 464.426 176.771 465.817 183.668C464.459 183.59 463.139 183.196 461.961 182.518C460.783 181.839 459.78 180.895 459.034 179.76C459.605 179.545 460.144 179.252 460.636 178.891C460.66 178.879 460.681 178.862 460.699 178.842C464.153 176.226 465.705 170.159 463.01 167.219C460.638 164.613 456.874 167.603 457.183 170.594V173.72L455.519 174.551L454.537 169.355L451.381 168.238L450.537 164.145" stroke="#402500" stroke-linecap="round" stroke-linejoin="round"></path><path d="M450.786 163.577L451.285 163.822L451.861 164.104C452.081 164.207 452.32 164.265 452.586 164.363C452.871 164.476 453.165 164.564 453.465 164.627L454.491 164.835C454.852 164.887 455.228 164.888 455.611 164.917C455.997 164.952 456.386 164.942 456.77 164.887C457.159 164.871 457.546 164.822 457.926 164.74L459.025 164.452C459.366 164.353 459.695 164.218 460.007 164.05L460.881 163.648C461.862 162.976 462.515 162.508 462.515 162.508L462.533 162.496C462.547 162.486 462.563 162.478 462.58 162.475C462.596 162.471 462.614 162.47 462.631 162.473C462.648 162.476 462.665 162.482 462.679 162.491C462.694 162.5 462.707 162.512 462.717 162.527C462.736 162.554 462.744 162.587 462.74 162.62C462.736 162.652 462.72 162.683 462.695 162.704C462.695 162.704 462.07 163.227 461.099 164.003L460.224 164.493C459.907 164.694 459.57 164.862 459.219 164.993L458.077 165.387C457.676 165.505 457.266 165.589 456.85 165.638C456.441 165.726 456.023 165.767 455.604 165.76C455.191 165.76 454.78 165.787 454.384 165.76L453.25 165.62C452.905 165.572 452.565 165.496 452.232 165.394C451.921 165.307 451.618 165.242 451.381 165.149L450.786 164.912L450.269 164.705C450.116 164.644 449.994 164.525 449.929 164.373C449.864 164.222 449.862 164.051 449.924 163.898C449.985 163.746 450.105 163.623 450.256 163.559C450.408 163.494 450.579 163.492 450.732 163.553L450.786 163.577Z" fill="#402500"></path><path d="M445.083 157.149V157.174C444.993 158.741 445.305 160.306 445.99 161.719C446.675 163.132 447.71 164.347 448.997 165.249C448.982 164.433 448.895 163.619 448.735 162.818C449.256 163.357 449.865 163.802 450.537 164.134V164.146" stroke="#402500" stroke-linecap="round" stroke-linejoin="round"></path><path d="M452.681 160.719C452.768 160.779 452.858 160.833 452.951 160.882C453.188 161.014 453.434 161.128 453.687 161.224C453.863 161.29 454.042 161.347 454.224 161.394C454.423 161.463 454.629 161.513 454.837 161.544C455.056 161.577 455.282 161.612 455.514 161.645C455.749 161.67 455.986 161.677 456.222 161.666H456.939L457.627 161.544C458.042 161.499 458.449 161.401 458.84 161.253L460.003 160.845L460.031 160.835C460.074 160.822 460.119 160.825 460.159 160.843C460.199 160.862 460.231 160.895 460.248 160.936C460.265 160.977 460.266 161.022 460.251 161.064C460.236 161.105 460.206 161.14 460.166 161.16L459.013 161.714C458.619 161.914 458.201 162.064 457.77 162.161L457.043 162.368L456.265 162.461C456.005 162.502 455.742 162.523 455.478 162.524L454.709 162.495C454.467 162.485 454.227 162.454 453.992 162.401C453.765 162.356 453.546 162.333 453.351 162.273C453.024 162.186 452.704 162.076 452.393 161.943C452.276 161.897 452.162 161.844 452.053 161.784L452 161.752C451.859 161.667 451.757 161.529 451.718 161.369C451.678 161.209 451.704 161.039 451.789 160.898C451.875 160.757 452.013 160.656 452.173 160.617C452.334 160.577 452.503 160.603 452.644 160.688C452.649 160.699 452.668 160.709 452.681 160.719Z" fill="#402500"></path><path d="M454.123 158.785C454.362 158.837 454.605 158.871 454.85 158.887C455.06 158.905 455.306 158.936 455.575 158.955L456.434 158.94C456.722 158.95 457.01 158.93 457.293 158.879L458.03 158.745L458.766 158.611L458.803 158.605C458.847 158.598 458.893 158.608 458.931 158.632C458.969 158.656 458.996 158.694 459.008 158.737C459.021 158.781 459.016 158.827 458.997 158.867C458.977 158.908 458.943 158.94 458.901 158.957L458.177 159.231L457.425 159.514C457.135 159.62 456.836 159.696 456.531 159.741L455.619 159.922C455.321 159.957 455.036 159.971 454.793 159.993C454.532 160.022 454.269 160.032 454.006 160.024H453.939C453.779 160.007 453.631 159.929 453.528 159.806C453.424 159.683 453.371 159.525 453.381 159.364C453.391 159.203 453.463 159.053 453.581 158.944C453.699 158.835 453.855 158.775 454.016 158.778C454.052 158.776 454.088 158.779 454.123 158.785Z" fill="#402500"></path><path d="M472.551 185.241C472.551 185.241 461.109 192.607 455.597 198.809C453.226 202.357 451.198 206.121 449.54 210.052C450.4 213.696 451.327 214.162 451.327 214.162C451.327 214.162 454.123 242.073 455.288 258.891C452.259 267.884 448.221 277.111 448.221 277.111C448.221 277.111 453.424 284.399 471.049 287.577C482.246 289.407 493.703 288.852 504.67 285.949C504.533 282.903 504.17 279.872 503.583 276.88C503.349 262.382 498.897 226.176 490.719 205.709C486.616 199.294 481.329 193.717 475.138 189.274C474.144 187.577 472.551 185.241 472.551 185.241Z" fill="#009EDB" stroke="#009EDB" stroke-linecap="round" stroke-linejoin="round"></path><path d="M475.139 189.277C475.139 189.277 458.337 197.403 449.992 211.687" stroke="#402500" stroke-width="0.5" stroke-linecap="round" stroke-linejoin="round"></path><path d="M460.639 199.155C464.694 207.502 467.87 216.246 470.116 225.247C472.421 235.367 473.772 245.68 474.154 256.051C474.154 256.051 470.948 273.82 464.321 286.022" stroke="#402500" stroke-width="0.5" stroke-linecap="round" stroke-linejoin="round"></path><path d="M454.894 258.413C454.894 258.413 455.654 257.809 456.886 256.971C457.5 256.55 458.197 256.042 458.966 255.533L461.413 253.998L462.654 253.218C463.056 252.947 463.49 252.744 463.891 252.52L466.101 251.325L468.257 250.164C468.289 250.149 468.326 250.147 468.36 250.157C468.394 250.168 468.423 250.191 468.441 250.222C468.459 250.252 468.465 250.289 468.457 250.324C468.449 250.359 468.429 250.389 468.399 250.41L468.389 250.416L466.314 251.704L464.191 253.02C463.805 253.265 463.392 253.493 463.009 253.784C462.626 254.076 462.222 254.348 461.827 254.632L459.503 256.297C458.775 256.844 458.119 257.385 457.547 257.832C456.404 258.718 455.668 259.376 455.668 259.376C455.608 259.431 455.537 259.473 455.46 259.5C455.383 259.527 455.302 259.539 455.22 259.535C455.139 259.531 455.059 259.511 454.985 259.476C454.912 259.441 454.845 259.391 454.791 259.331C454.736 259.27 454.694 259.2 454.667 259.123C454.639 259.046 454.628 258.965 454.632 258.883C454.636 258.802 454.656 258.722 454.691 258.649C454.726 258.575 454.776 258.509 454.836 258.455C454.845 258.446 454.855 258.439 454.862 258.43L454.894 258.413Z" fill="#402500"></path><path d="M503.583 276.88C500.416 275.989 497.161 275.442 493.876 275.252L503.583 276.88Z" fill="#BADBF7"></path><path d="M503.405 277.476C503.405 277.476 502.817 277.26 501.953 277.029C501.516 276.914 501.02 276.742 500.455 276.632L498.704 276.242C497.512 275.953 496.289 275.839 495.382 275.675L493.861 275.439H493.849C493.801 275.432 493.758 275.407 493.729 275.369C493.7 275.331 493.686 275.284 493.691 275.236C493.697 275.188 493.72 275.145 493.757 275.114C493.794 275.083 493.841 275.068 493.889 275.072L495.431 275.172C496.354 275.255 497.601 275.262 498.83 275.449L500.643 275.687C501.224 275.748 501.764 275.879 502.229 275.963C503.17 276.132 503.757 276.29 503.757 276.29L503.78 276.296C503.94 276.339 504.075 276.443 504.157 276.586C504.24 276.729 504.261 276.899 504.218 277.058C504.175 277.217 504.071 277.353 503.927 277.435C503.784 277.517 503.614 277.539 503.455 277.496C503.439 277.488 503.422 277.481 503.405 277.476Z" fill="#402500"></path><path d="M338.362 293.509C344.704 295.412 349.804 295.114 351.669 288.914C353.533 282.715 346.947 280.949 349.126 273.719C351.17 266.937 356.46 263.88 365.515 266.601C374.57 269.323 377.297 274.787 375.254 281.568C373.075 288.798 366.6 286.649 364.735 292.842C362.869 299.035 366.951 302.099 373.288 304.005L394.029 310.224C395.677 310.717 397.453 310.538 398.968 309.724C400.483 308.911 401.613 307.53 402.109 305.886L425.761 227.382C426.007 226.568 426.089 225.714 426.004 224.868C425.919 224.022 425.668 223.201 425.265 222.452C424.862 221.703 424.315 221.041 423.655 220.503C422.996 219.965 422.237 219.562 421.422 219.317L400.638 213.074C394.3 211.169 390.217 208.11 392.086 201.911C393.956 195.713 400.432 197.867 402.607 190.637C404.648 183.858 401.921 178.39 392.867 175.673C383.813 172.956 378.522 176.008 376.477 182.79C374.3 190.021 380.896 191.791 379.023 197.986C377.15 204.181 372.055 204.481 365.714 202.584L342.796 195.696C341.981 195.45 341.125 195.368 340.278 195.453C339.431 195.538 338.609 195.789 337.859 196.191C337.109 196.594 336.445 197.14 335.907 197.799C335.369 198.458 334.965 199.216 334.721 200.03L328.761 219.803C326.851 226.13 327.153 231.223 333.364 233.088C339.576 234.953 341.342 228.372 348.583 230.547C355.374 232.588 358.436 237.872 355.709 246.913C352.982 255.955 347.509 258.678 340.722 256.636C333.481 254.462 335.637 247.995 329.431 246.133C323.224 244.27 320.159 248.339 318.251 254.673L311.063 278.535C310.817 279.349 310.735 280.203 310.82 281.049C310.905 281.895 311.156 282.716 311.559 283.465C311.962 284.214 312.509 284.876 313.169 285.414C313.828 285.952 314.587 286.355 315.403 286.6L338.362 293.509Z" fill="white" stroke="#009EDB" stroke-linecap="round" stroke-linejoin="round"></path><path d="M382.195 259.149C383.559 257.741 384.766 256.19 385.796 254.522C386.39 253.665 387.237 253.015 388.218 252.662C389.52 251.981 390.777 251.218 391.982 250.379C391.721 250.455 387.535 251.669 386.516 251.991C384.805 252.75 383.03 253.356 381.212 253.803C378.939 254.212 378.021 252.787 378.564 252.588C380.173 251.998 381.733 251.28 383.228 250.442C384.182 249.802 385.198 249.258 386.259 248.817C386.806 248.619 387.855 248.222 388.918 247.813C387.974 247.687 387.025 247.616 386.073 247.601C385.539 247.614 384.247 248.123 382.172 248.531C380.098 248.939 379.24 248.607 378.831 247.142C381.191 246.857 385.305 244.885 385.762 244.885C386.22 244.885 388.483 244.525 390.011 244.376C391.219 244.147 392.449 244.065 393.676 244.131C393.912 244.267 398.136 247.034 405.354 250.994C417.082 250.994 438.823 241.455 445.01 240.525L461.421 213.32L477.001 226.283C468.888 236.269 453.868 253.114 452.577 253.882C451.286 254.651 413.382 258.67 406.884 259.179C403.468 260.729 400.983 260.319 399.206 259.266C397.429 258.212 394.336 256.003 394.336 256.003C393.277 256.496 392.28 257.113 391.368 257.842C390.964 258.731 390.624 259.647 390.349 260.584C390.103 261.074 389.744 261.499 389.301 261.822C388.858 262.146 388.344 262.359 387.802 262.444C387.802 262.444 388.199 260.012 388.336 259.555C388.468 258.656 388.785 257.794 389.268 257.024C389.615 256.578 390.51 255.299 391.242 254.219C390.435 254.533 389.667 254.941 388.956 255.435C388.173 255.994 388.073 256.737 386.882 258.176C386.322 258.839 385.556 259.295 384.706 259.471C383.857 259.647 382.972 259.534 382.195 259.149Z" fill="white"></path><path d="M459.164 246.956C464.564 240.967 472.059 232.354 476.998 226.276L461.419 213.313L445.679 239.401C449.899 242.38 454.419 244.912 459.164 246.956Z" fill="#EFF7FD"></path><path d="M392.396 246.495C392.396 246.495 390.617 247.178 388.916 247.812C387.849 248.22 386.805 248.617 386.258 248.816C385.196 249.257 384.181 249.801 383.227 250.441C381.731 251.279 380.172 251.997 378.563 252.587C378.017 252.786 378.931 254.212 381.21 253.802C383.028 253.354 384.803 252.748 386.514 251.99C387.533 251.668 391.719 250.454 391.981 250.378" stroke="#402500" stroke-linecap="round" stroke-linejoin="round"></path><path d="M393.401 249.411C393.401 249.411 392.817 249.819 391.997 250.378H391.985C390.779 251.217 389.522 251.979 388.22 252.661C387.239 253.014 386.392 253.665 385.798 254.521C384.768 256.188 383.56 257.74 382.197 259.148C382.975 259.531 383.859 259.642 384.708 259.464C385.557 259.287 386.321 258.83 386.88 258.168C388.073 256.729 388.172 255.984 388.954 255.427C389.665 254.932 390.433 254.524 391.241 254.211H391.253" stroke="#402500" stroke-linecap="round" stroke-linejoin="round"></path><path d="M392.396 252.536C392.396 252.536 391.873 253.305 391.24 254.211C390.503 255.291 389.612 256.567 389.265 257.016C388.783 257.786 388.465 258.648 388.334 259.547C388.197 260.005 387.8 262.437 387.8 262.437C388.342 262.352 388.856 262.139 389.298 261.815C389.741 261.491 390.101 261.067 390.346 260.577C390.622 259.64 390.962 258.724 391.365 257.835C392.278 257.106 393.274 256.489 394.334 255.996C394.334 255.996 397.414 258.192 399.204 259.259C400.993 260.325 403.465 260.722 406.882 259.172C413.379 258.664 451.271 254.645 452.575 253.875C453.878 253.106 468.887 236.261 476.998 226.274L461.419 213.312L445.007 240.517C438.82 241.447 417.08 250.986 405.351 250.986C398.134 247.029 393.909 244.263 393.674 244.123C392.447 244.057 391.216 244.139 390.009 244.368C388.482 244.516 386.234 244.877 385.76 244.877C385.286 244.877 381.188 246.848 378.828 247.134C379.238 248.597 380.097 248.932 382.17 248.522C384.243 248.113 385.536 247.606 386.07 247.592C387.022 247.607 387.972 247.678 388.915 247.804" stroke="#402500" stroke-linecap="round" stroke-linejoin="round"></path><path d="M476.444 202.607C476.444 202.607 468.49 202.802 463.608 205.703C456.788 213.896 447.914 230.311 447.914 230.311C447.914 230.311 456.967 239.615 464.728 243.956C464.728 243.956 475.909 234.137 483.156 226.488L476.444 202.607Z" fill="#009EDB"></path><path d="M474.475 234.208L483.022 226.343C483.059 226.306 483.109 226.285 483.162 226.285C483.214 226.285 483.264 226.306 483.301 226.343C483.339 226.38 483.359 226.43 483.359 226.483C483.359 226.535 483.339 226.585 483.301 226.622L475.353 235.085C475.298 235.145 475.232 235.194 475.157 235.228C475.083 235.262 475.003 235.282 474.922 235.285C474.84 235.288 474.759 235.276 474.682 235.248C474.606 235.22 474.535 235.177 474.475 235.122C474.415 235.066 474.367 235 474.332 234.926C474.298 234.852 474.279 234.772 474.275 234.691C474.272 234.609 474.285 234.528 474.313 234.451C474.341 234.375 474.384 234.305 474.439 234.245C474.45 234.232 474.462 234.219 474.475 234.208Z" fill="#402500"></path><path d="M474.753 234.05L486.095 231.51C486.145 231.498 486.197 231.506 486.242 231.532C486.286 231.558 486.318 231.601 486.331 231.651C486.345 231.7 486.338 231.753 486.313 231.798C486.288 231.843 486.246 231.876 486.196 231.891L475.073 235.25C474.916 235.298 474.746 235.283 474.6 235.206C474.454 235.129 474.345 234.998 474.296 234.841C474.247 234.684 474.263 234.514 474.34 234.368C474.416 234.223 474.548 234.113 474.705 234.065C474.721 234.059 474.737 234.054 474.753 234.05Z" fill="#402500"></path><path d="M463.609 205.703C456.789 213.896 447.915 230.311 447.915 230.311C447.915 230.311 456.968 239.615 464.73 243.956C464.73 243.956 469.55 239.722 474.909 234.65" stroke="#402500" stroke-linecap="round" stroke-linejoin="round"></path><path d="M476.453 202.843C476.453 202.843 475.627 202.884 474.398 203.05C473.785 203.115 473.069 203.242 472.305 203.367C471.54 203.492 470.741 203.696 469.936 203.857L468.759 204.193C468.374 204.316 467.983 204.396 467.629 204.535C466.919 204.816 466.248 205.055 465.692 205.291L463.927 206.23L463.844 206.274C463.699 206.349 463.529 206.364 463.373 206.316C463.217 206.267 463.086 206.159 463.009 206.015C462.932 205.871 462.916 205.703 462.962 205.546C463.009 205.39 463.116 205.258 463.259 205.18L463.29 205.164L465.254 204.259C465.856 204.04 466.574 203.829 467.332 203.582C467.712 203.459 468.117 203.394 468.522 203.295L469.749 203.02C470.584 202.898 471.411 202.738 472.194 202.653C472.977 202.567 473.708 202.482 474.336 202.453C475.59 202.359 476.431 202.363 476.431 202.363H476.438C476.5 202.362 476.561 202.386 476.605 202.429C476.65 202.472 476.676 202.531 476.678 202.593C476.679 202.655 476.655 202.715 476.612 202.76C476.569 202.804 476.51 202.83 476.448 202.832L476.453 202.843Z" fill="#402500"></path><path d="M183.545 114.039C183.166 114.566 178.841 119.487 178.138 120.044C177.435 120.6 171.51 123.241 170.326 124.717C169.142 126.194 156.222 152.903 152.6 157.795C148.978 162.687 146.042 166.793 142.831 167.851C141.125 168.421 112.941 164.141 112.941 164.141L114.123 145.795L137.012 153.769C139.596 149.344 142.47 145.096 145.617 141.05C149.883 135.813 162.888 123.24 164.502 118.213C165.277 115.42 166.268 112.693 167.469 110.055C167.96 109.327 170.133 107.499 170.852 106.328C171.572 105.158 172.047 103.885 172.373 104.032C173.314 104.426 174.337 105.86 173.219 108.421C175 106.892 177.059 105.125 177.616 104.678C178.65 103.836 181.585 101.172 182.297 100.492C183.009 99.8114 184.041 99.168 184.261 99.2967C184.461 100.215 184.305 101.175 183.824 101.983H183.836C184.097 101.617 184.469 101.344 184.896 101.203C185.323 101.063 185.785 101.063 186.212 101.202C186.149 101.983 185.944 102.745 185.607 103.452C185.607 103.452 186.545 105.363 186.389 105.79C186.233 106.218 185.511 107.996 185.284 108.486C185.088 108.845 184.867 109.188 184.62 109.515C184.62 109.515 184.498 111.381 184.485 111.621C184.28 112.465 183.964 113.278 183.545 114.039Z" fill="#EFF7FD"></path><path d="M170.353 110.892L173.219 108.42C175 106.891 177.059 105.124 177.616 104.677C178.65 103.835 181.585 101.171 182.297 100.491C183.009 99.8104 184.041 99.167 184.261 99.2957C184.461 100.214 184.305 101.174 183.824 101.982C183.639 102.397 183.398 102.783 183.106 103.131C181.782 104.749 180.424 106.869 179.902 107.457C178.795 108.508 177.871 109.736 177.168 111.089" stroke="#2647A3" stroke-linecap="round" stroke-linejoin="round"></path><path d="M179.469 113.42C180.279 111.759 181.257 110.185 182.387 108.722C183.539 107.338 184.508 105.811 185.27 104.179C185.392 103.945 185.497 103.699 185.605 103.454C185.943 102.747 186.148 101.984 186.21 101.204C185.782 101.064 185.321 101.064 184.894 101.205C184.466 101.345 184.095 101.618 183.834 101.984" stroke="#2647A3" stroke-linecap="round" stroke-linejoin="round"></path><path d="M181.164 114.701C181.659 113.744 182.215 112.82 182.829 111.935C183.32 111.276 184.076 110.29 184.62 109.52C184.867 109.194 185.089 108.85 185.284 108.491C185.513 108.001 186.252 106.206 186.389 105.795C186.526 105.385 185.607 103.457 185.607 103.457" stroke="#2647A3" stroke-linecap="round" stroke-linejoin="round"></path><path d="M184.62 109.518C184.62 109.518 184.498 111.385 184.485 111.625C184.281 112.467 183.965 113.279 183.547 114.038C183.167 114.565 178.842 119.486 178.139 120.043C177.436 120.599 171.512 123.24 170.327 124.716C169.143 126.193 156.223 152.902 152.601 157.794C148.979 162.686 146.044 166.792 142.832 167.85C141.126 168.42 112.942 164.14 112.942 164.14L114.124 145.794L137.013 153.768C139.597 149.343 142.471 145.095 145.618 141.049C149.884 135.812 162.89 123.239 164.504 118.21C165.278 115.418 166.27 112.691 167.47 110.053C167.961 109.325 170.135 107.496 170.854 106.326C171.573 105.156 172.048 103.883 172.374 104.03C173.316 104.424 174.338 105.858 173.22 108.419" stroke="#402500" stroke-linecap="round" stroke-linejoin="round"></path><path d="M111.603 141.483C106.99 141.667 101.955 142.156 101.955 142.156L100.778 160.426C105.98 163.149 110.701 165.818 117.746 167.847C119.39 163.544 125.257 148.441 125.257 148.441C125.257 148.441 118.624 144.973 111.603 141.483Z" fill="#009EDB"></path><path d="M111.18 166.218L105.862 163.572L100.655 160.664C100.6 160.627 100.56 160.572 100.543 160.508C100.526 160.443 100.534 160.375 100.564 160.316C100.595 160.257 100.646 160.212 100.708 160.188C100.77 160.165 100.839 160.165 100.901 160.19L106.229 162.763L111.694 165.091C111.769 165.123 111.837 165.169 111.895 165.227C111.952 165.284 111.998 165.353 112.029 165.428C112.06 165.504 112.075 165.585 112.075 165.666C112.075 165.747 112.058 165.828 112.027 165.903C111.995 165.978 111.949 166.047 111.892 166.104C111.834 166.161 111.765 166.207 111.689 166.238C111.614 166.269 111.533 166.284 111.451 166.284C111.37 166.284 111.289 166.267 111.214 166.236L111.18 166.218Z" fill="#009EDB"></path><path d="M111.425 166.273L107.202 165.997L102.974 165.519C102.903 165.514 102.837 165.481 102.79 165.427C102.743 165.373 102.72 165.303 102.725 165.232C102.73 165.161 102.764 165.095 102.818 165.048C102.872 165.002 102.942 164.978 103.013 164.984L107.218 165.106L111.447 165.029C111.608 165.031 111.762 165.095 111.877 165.208C111.992 165.32 112.058 165.473 112.063 165.634C112.067 165.795 112.008 165.951 111.899 166.07C111.791 166.188 111.64 166.26 111.479 166.27L111.425 166.273Z" fill="#009EDB"></path><path d="M110.096 141.553C110.599 141.527 111.102 141.501 111.603 141.483C118.62 144.973 125.258 148.442 125.258 148.442C125.258 148.442 119.392 163.544 117.747 167.849C115.606 167.232 113.5 166.499 111.439 165.653" stroke="#402500" stroke-linecap="round" stroke-linejoin="round"></path><path d="M101.927 141.769L110.05 140.934C110.213 140.92 110.376 140.97 110.502 141.074C110.628 141.178 110.708 141.328 110.724 141.49C110.74 141.653 110.691 141.815 110.588 141.942C110.485 142.069 110.336 142.15 110.173 142.168H110.134L101.977 142.536C101.875 142.54 101.775 142.504 101.699 142.435C101.623 142.366 101.578 142.27 101.572 142.168C101.57 142.069 101.605 141.973 101.671 141.899C101.737 141.825 101.828 141.778 101.927 141.769Z" fill="#009EDB"></path><path d="M140.183 78.5893L171.993 154.168C172.659 155.75 173.928 157.003 175.52 157.652C177.111 158.3 178.896 158.291 180.481 157.626L200.486 149.23C206.585 146.67 211.689 146.433 214.198 152.402C216.706 158.371 210.345 160.822 213.276 167.786C216.024 174.312 221.613 176.796 230.328 173.138C239.043 169.48 241.176 163.757 238.428 157.229C235.497 150.268 229.287 153.093 226.776 147.124C224.265 141.155 228.004 137.688 234.107 135.12L256.173 125.865C256.958 125.535 257.67 125.055 258.269 124.45C258.868 123.846 259.342 123.129 259.664 122.342C259.986 121.554 260.149 120.711 260.144 119.861C260.139 119.011 259.967 118.17 259.636 117.386L251.629 98.3545C249.067 92.2604 245.588 88.5264 239.61 91.0362C233.632 93.5459 236.462 99.7442 229.49 102.672C222.952 105.416 217.217 103.285 213.559 94.5838C209.902 85.8831 212.382 80.3049 218.917 77.5587C225.891 74.6298 228.348 80.9899 234.324 78.4777C240.3 75.9656 240.067 70.88 237.499 64.7846L227.835 41.8049C227.168 40.2225 225.899 38.9694 224.306 38.3211C222.714 37.6729 220.929 37.6825 219.344 38.3479L143.642 70.1091C142.058 70.7767 140.804 72.0447 140.155 73.6347C139.507 75.2247 139.517 77.0067 140.183 78.5893Z" fill="#EFF7FD" stroke="#009EDB" stroke-linecap="round" stroke-linejoin="round"></path><path d="M117.802 355.432L116.207 392.76L103.575 394.167L102.862 355.433L117.802 355.432Z" fill="white" stroke="#402500" stroke-linecap="round" stroke-linejoin="round"></path><path d="M145.409 404.118H101.555V407.387H145.409V404.118Z" fill="#EFF7FD" stroke="#402500" stroke-linecap="round" stroke-linejoin="round"></path><path d="M134.841 397.953C134.785 397.303 134.58 396.676 134.241 396.119C133.903 395.562 133.44 395.09 132.889 394.741C131.106 393.822 120.483 387.859 119.103 387.056C117.724 386.253 117.093 385.161 115.944 385.392C115.443 385.59 115.004 385.92 114.675 386.347C114.346 386.773 114.138 387.28 114.073 387.815C114.008 388.349 114.089 388.891 114.307 389.384C114.525 389.876 114.871 390.301 115.311 390.613C118.011 392.736 133.289 400.019 133.289 400.019L134.841 397.953Z" fill="#EFF7FD" stroke="#402500" stroke-linecap="round" stroke-linejoin="round"></path><path d="M131.293 400.001C131.697 398.682 131.927 398.096 130.376 396.834C128.825 395.571 120.208 391.564 118.197 390.239C116.187 388.915 115.268 388.863 112.797 390.525C110.327 392.187 108.704 391.758 105.945 392.159C103.186 392.559 102.905 391.986 102.327 393.536C101.749 395.086 101.551 400.848 101.551 404.115H132.886L131.293 400.001Z" fill="white" stroke="#402500" stroke-linecap="round" stroke-linejoin="round"></path><path d="M145.409 404.118C145.313 403.359 145.053 402.63 144.647 401.981C144.24 401.333 143.697 400.781 143.055 400.363C140.414 399.04 137.69 397.89 134.899 396.921C133.291 396.291 130.706 399.732 129.959 404.119H145.409V404.118Z" fill="white" stroke="#402500" stroke-linecap="round" stroke-linejoin="round"></path><path d="M126.688 396.346C126.607 396.473 126.553 396.615 126.528 396.764C126.503 396.912 126.508 397.064 126.542 397.211C126.576 397.357 126.639 397.496 126.728 397.618C126.816 397.74 126.928 397.843 127.056 397.922C127.184 398.002 127.326 398.055 127.475 398.08C127.623 398.105 127.775 398.1 127.922 398.066C128.068 398.032 128.207 397.969 128.329 397.881C128.452 397.793 128.555 397.682 128.634 397.554L131.25 393.344C131.33 393.216 131.384 393.074 131.408 392.925C131.433 392.776 131.428 392.624 131.394 392.477C131.36 392.331 131.297 392.192 131.209 392.07C131.121 391.947 131.01 391.843 130.882 391.764C130.754 391.684 130.611 391.631 130.462 391.606C130.314 391.582 130.162 391.587 130.015 391.621C129.868 391.655 129.729 391.718 129.607 391.805C129.484 391.893 129.38 392.004 129.301 392.132L126.688 396.346Z" fill="white" stroke="#402500" stroke-linecap="round" stroke-linejoin="round"></path><path d="M121.777 393.398C121.697 393.525 121.643 393.667 121.618 393.815C121.593 393.964 121.597 394.116 121.632 394.262C121.666 394.409 121.729 394.547 121.817 394.669C121.905 394.791 122.017 394.895 122.146 394.973C122.273 395.054 122.415 395.108 122.564 395.132C122.713 395.157 122.865 395.153 123.012 395.118C123.158 395.084 123.297 395.021 123.419 394.933C123.541 394.845 123.645 394.734 123.724 394.606L126.339 390.396C126.419 390.268 126.473 390.126 126.498 389.977C126.522 389.829 126.518 389.677 126.483 389.53C126.449 389.383 126.386 389.244 126.298 389.122C126.211 388.999 126.099 388.895 125.971 388.816C125.712 388.655 125.4 388.604 125.103 388.673C124.807 388.742 124.549 388.925 124.388 389.183L121.777 393.398Z" fill="white" stroke="#402500" stroke-linecap="round" stroke-linejoin="round"></path><path d="M116.953 391.067C116.881 391.199 116.836 391.344 116.82 391.494C116.805 391.643 116.819 391.795 116.862 391.939C116.905 392.083 116.976 392.217 117.071 392.334C117.167 392.45 117.284 392.547 117.417 392.618C117.549 392.691 117.694 392.736 117.843 392.753C117.993 392.769 118.145 392.755 118.289 392.713C118.433 392.67 118.568 392.6 118.685 392.505C118.802 392.41 118.899 392.293 118.97 392.161L121.343 387.811C121.488 387.544 121.521 387.23 121.435 386.939C121.349 386.647 121.15 386.402 120.883 386.257C120.75 386.184 120.605 386.139 120.454 386.123C120.304 386.107 120.152 386.12 120.007 386.163C119.863 386.206 119.728 386.276 119.61 386.371C119.493 386.466 119.395 386.583 119.323 386.715L116.953 391.067Z" fill="white" stroke="#402500" stroke-linecap="round" stroke-linejoin="round"></path><path d="M63.7649 349.447L49.3685 387.872L39.0591 380.449L50.7849 343.385L63.7649 349.447Z" fill="white" stroke="#402500" stroke-linecap="round" stroke-linejoin="round"></path><path d="M59.6928 404.211C60.0878 403.692 60.3575 403.09 60.481 402.45C60.6045 401.81 60.5783 401.15 60.4046 400.522C59.7026 398.645 55.8329 387.106 55.3518 385.587C54.8707 384.067 55.1346 382.835 54.1245 382.236C53.6195 382.048 53.073 381.999 52.5424 382.094C52.0118 382.189 51.5168 382.426 51.1095 382.779C50.7023 383.131 50.3978 383.587 50.2281 384.098C50.0585 384.609 50.0299 385.156 50.1455 385.682C50.7212 389.066 57.151 404.702 57.151 404.702L59.6928 404.211Z" fill="#EFF7FD" stroke="#402500" stroke-linecap="round" stroke-linejoin="round"></path><path d="M55.6855 403.351C56.8736 402.644 57.4369 402.37 57.135 400.389C56.8331 398.407 53.1438 389.665 52.5412 387.339C51.9386 385.013 51.2942 384.356 48.3474 383.932C45.4007 383.508 44.4851 382.103 42.1692 380.552C39.8532 379.002 40.0312 378.387 38.5609 379.148C37.0906 379.909 33.0723 384.05 30.8742 386.47L51.0794 406.04L55.6855 403.351Z" fill="white" stroke="#402500" stroke-linecap="round" stroke-linejoin="round"></path><path d="M68.6888 404.202C68.592 403.443 68.3313 402.714 67.9247 402.066C67.518 401.417 66.9751 400.865 66.3336 400.446C64.1353 399.209 61.8536 398.127 59.5048 397.206C57.8958 396.576 54.9233 399.842 54.5735 404.205L68.6888 404.202Z" fill="white" stroke="#402500" stroke-linecap="round" stroke-linejoin="round"></path><path d="M53.2617 392.732C53.1166 392.773 52.9812 392.843 52.8632 392.936C52.7452 393.03 52.647 393.146 52.5742 393.278C52.5014 393.41 52.4554 393.555 52.439 393.705C52.4226 393.854 52.4361 394.006 52.4786 394.15C52.5196 394.295 52.5889 394.43 52.6826 394.548C52.7763 394.666 52.8924 394.764 53.0244 394.837C53.1563 394.91 53.3014 394.956 53.4513 394.972C53.6011 394.989 53.7528 394.976 53.8974 394.933L58.6655 393.567C58.8107 393.525 58.9463 393.456 59.0645 393.362C59.1828 393.268 59.2813 393.152 59.3545 393.02C59.4277 392.888 59.4741 392.743 59.4911 392.593C59.508 392.443 59.4953 392.291 59.4535 392.146C59.3685 391.854 59.1709 391.607 58.9041 391.46C58.6373 391.313 58.3229 391.277 58.0298 391.361L53.2617 392.732Z" fill="white" stroke="#402500" stroke-linecap="round" stroke-linejoin="round"></path><path d="M51.0611 387.313C50.9189 387.363 50.7878 387.44 50.6755 387.54C50.5633 387.64 50.472 387.762 50.4069 387.897C50.3419 388.033 50.3044 388.18 50.2966 388.331C50.2888 388.481 50.3109 388.631 50.3616 388.773C50.4107 388.915 50.4877 389.046 50.5878 389.158C50.688 389.271 50.8095 389.362 50.9453 389.428C51.0811 389.493 51.2285 389.531 51.379 389.539C51.5294 389.547 51.68 389.525 51.8221 389.475L56.5043 387.841C56.6465 387.792 56.7775 387.714 56.8899 387.614C57.0022 387.514 57.0937 387.392 57.159 387.256C57.2243 387.121 57.2622 386.974 57.2705 386.823C57.2788 386.673 57.2574 386.523 57.2075 386.381C57.1579 386.238 57.0806 386.107 56.9802 385.994C56.8797 385.882 56.7579 385.79 56.6219 385.725C56.4859 385.659 56.3383 385.621 56.1875 385.613C56.0367 385.605 55.8858 385.626 55.7433 385.676L51.0611 387.313Z" fill="white" stroke="#402500" stroke-linecap="round" stroke-linejoin="round"></path><path d="M50.3885 404.115L30.8742 386.469L28.6761 388.893L49.1292 407.384H68.6901V404.114L50.3885 404.115Z" fill="#EFF7FD" stroke="#402500" stroke-linecap="round" stroke-linejoin="round"></path><path d="M86.7769 209.645L83.6301 226.492C83.576 233.955 83.9526 241.415 84.758 248.835C85.1924 250.898 97.0716 296.757 97.5576 302.62C98.0436 308.482 100.839 358.897 100.839 358.897C100.839 358.897 113.222 362.041 119.571 361.348C120.997 321.049 124.578 289.726 125.462 278.107C126.345 266.489 125.584 229.334 125.543 228.344C125.501 227.354 118.194 202.282 118.194 202.282L86.7769 209.645Z" fill="#EFF7FD" stroke="#009EDB" stroke-linecap="round" stroke-linejoin="round"></path><path d="M97.4546 208.035C97.4546 208.035 100.547 235.232 101.847 244.57C103.147 253.908 107.078 290.682 107.131 295.27C107.184 299.858 108.087 360.429 108.087 360.429" stroke="#402500" stroke-width="0.5" stroke-linecap="round" stroke-linejoin="round"></path><path d="M100.648 355.432C106.868 357.089 113.25 358.067 119.682 358.348" stroke="#402500" stroke-width="0.5" stroke-linecap="round" stroke-linejoin="round"></path><path d="M104.481 206.561C104.481 206.561 105.738 223.681 105.463 226.722C104.14 233.361 101.781 244.065 101.781 244.065" stroke="#2647A3" stroke-width="0.5" stroke-linecap="round" stroke-linejoin="round"></path><path d="M86.7769 201.987L83.8522 215.943C80.8617 222.782 78.2689 229.788 76.087 236.926C75.6722 238.993 68.528 285.821 66.665 291.403C64.8019 296.985 47.5116 344.433 47.5116 344.433C47.5116 344.433 57.6565 352.187 63.7648 354.047C80.9472 317.557 96.5856 290.164 101.969 279.827C107.352 269.489 125.188 229.278 125.533 228.348C125.878 227.418 125.155 207.26 125.155 207.26L86.7769 201.987Z" fill="white" stroke="#009EDB" stroke-linecap="round" stroke-linejoin="round"></path><path d="M103.833 204.402C103.833 204.402 95.9635 230.627 93.4794 239.72C90.9953 248.813 80.1226 284.168 78.3638 288.407C76.6051 292.646 53.5722 348.691 53.5722 348.691" stroke="#009EDB" stroke-width="0.5" stroke-linecap="round" stroke-linejoin="round"></path><path d="M48.7008 341.171C53.7672 345.137 59.2493 348.542 65.051 351.328" stroke="#009EDB" stroke-width="0.5" stroke-linecap="round" stroke-linejoin="round"></path><path d="M110.872 205.807C110.872 205.807 105.282 222.04 103.833 224.729C100.001 230.311 93.6131 239.227 93.6131 239.227" stroke="#009EDB" stroke-width="0.5" stroke-linecap="round" stroke-linejoin="round"></path><path d="M111.286 119.083C109.282 121.43 108.197 124.423 108.233 127.507C108.233 131.606 108.699 139.55 108.699 139.55L90.2698 131.436L95.4466 112.054L111.286 119.083Z" fill="white"></path><path d="M95.4478 112.054L93.5602 119.117C97.6919 124.114 102.692 128.326 108.321 131.551C108.268 130.08 108.233 128.643 108.233 127.507C108.197 124.423 109.282 121.43 111.286 119.083L95.4478 112.054Z" fill="#EFF7FD"></path><path d="M111.286 119.083C109.282 121.43 108.197 124.423 108.233 127.507C108.233 131.606 108.699 139.55 108.699 139.55L90.2698 131.436L95.4466 112.054L111.286 119.083Z" stroke="#402500" stroke-linecap="round" stroke-linejoin="round"></path><path d="M87.4054 198.667L86.7782 201.988C96.7194 207.339 118.536 209.199 125.538 208.187L124.671 202.21L87.4054 198.667Z" fill="white" stroke="#402500" stroke-linecap="round" stroke-linejoin="round"></path><path d="M120.63 202.797C120.63 202.797 120.966 206.699 121.019 207.454C121.072 208.209 121.201 209.651 122.209 209.651C123.557 209.555 124.897 209.374 126.222 209.108L125.34 201.976L120.63 202.797Z" fill="white" stroke="#402500" stroke-linecap="round" stroke-linejoin="round"></path><path d="M114.108 139.552C114.108 139.552 127.308 157.566 128.467 159.812C129.709 167.41 126.215 180.277 125.284 183.463C126.294 189.899 128.731 199.517 128.731 199.517C127.829 201.188 126.635 202.685 125.205 203.937C110.608 206.107 90.8074 200.215 87.625 198.975C86.5303 197.781 85.7316 196.347 85.2931 194.789C85.3717 194.323 87.4667 191.454 87.4667 190.603C87.4667 189.751 85.6527 175.921 83.9504 167.677C82.2889 165.064 81.1972 162.13 80.7461 159.068C80.2951 156.005 80.4949 152.882 81.3326 149.902C83.2742 143.003 92.6693 133 92.6693 133L114.108 139.552Z" fill="#009EDB" stroke="#402500" stroke-linecap="round" stroke-linejoin="round"></path><path d="M107.275 136.938C107.275 136.938 107.042 147.252 107.275 148.493C107.509 149.733 109.838 195.088 109.838 196.018C109.101 198.581 108.214 201.098 107.183 203.558" stroke="#402500" stroke-width="0.5" stroke-linecap="round" stroke-linejoin="round"></path><path d="M90.6574 128.181C90.6574 128.181 99.7469 130.659 102.424 131.552C105.1 132.445 115.659 138.415 115.659 138.415L112.63 148.494C112.63 148.494 98.7025 137.717 97.7464 136.942C96.7903 136.166 88.1734 133.143 88.1734 133.143L90.6574 128.181Z" fill="#009EDB"></path><path d="M102.885 131.728C102.718 131.661 102.554 131.597 102.423 131.552C99.7471 130.659 90.6564 128.181 90.6564 128.181L88.1724 133.148C88.1724 133.148 96.7635 136.163 97.7454 136.946L102.885 131.728Z" fill="#009EDB"></path><path d="M90.6574 128.181C90.6574 128.181 99.7469 130.659 102.424 131.552C105.1 132.445 115.659 138.415 115.659 138.415L112.63 148.494C112.63 148.494 98.7025 137.717 97.7464 136.942C96.7903 136.166 88.1734 133.143 88.1734 133.143L90.6574 128.181Z" stroke="#402500" stroke-linecap="round" stroke-linejoin="round"></path><path d="M93.0423 114.176C93.0634 114.193 93.0883 114.204 93.1148 114.209C93.6793 114.442 94.2731 114.597 94.8796 114.669C101.173 123.503 114.493 122.823 116.328 122.371C118.163 121.919 117.692 120.436 117.51 118.462C117.349 116.47 118.691 116.306 119.134 115.506C119.395 114.665 119.455 113.775 119.309 112.907C120.23 112.824 121.082 112.384 121.682 111.681L121.407 110.578C121.327 110.253 121.379 109.909 121.552 109.622C121.725 109.335 122.005 109.129 122.331 109.048C122.823 108.898 123.275 108.641 123.655 108.296C124.036 107.951 124.335 107.526 124.531 107.051C124.777 106.083 124.107 105.803 121.7 103.368C119.293 100.933 121.338 100.304 118.408 90.8388C117.151 86.7389 114.478 83.217 110.865 80.8991C107.252 78.5811 102.933 77.6172 98.6757 78.1787C89.1505 79.2509 82.6728 84.2606 81.8223 95.3962C81.0037 105.968 88.0006 112.521 93.0423 114.176Z" fill="white"></path><path d="M116.285 98.6794C115.627 98.6895 115.106 99.5079 115.121 100.507C115.136 101.507 115.682 102.309 116.34 102.299C116.999 102.289 117.52 101.47 117.504 100.471C117.489 99.4715 116.943 98.6694 116.285 98.6794Z" fill="#402500"></path><path d="M94.8794 114.67C101.173 123.504 114.493 122.823 116.328 122.372C118.163 121.921 117.691 120.437 117.51 118.463C117.349 116.472 118.69 116.307 119.134 115.507C119.394 114.666 119.455 113.776 119.309 112.908C120.23 112.826 121.082 112.386 121.681 111.682L121.407 110.58C121.326 110.254 121.379 109.91 121.552 109.624C121.725 109.337 122.005 109.13 122.331 109.049C122.822 108.899 123.275 108.642 123.655 108.297C124.036 107.951 124.335 107.526 124.531 107.051C124.777 106.083 124.107 105.803 121.7 103.368C119.293 100.933 121.338 100.304 118.408 90.8388C117.15 86.7389 114.478 83.217 110.865 80.8991C107.252 78.5811 102.933 77.6172 98.6755 78.1787C89.1503 79.2509 82.6726 84.2606 81.8221 95.3962C81.0108 105.972 88.0077 112.526 93.0507 114.18" stroke="#402500" stroke-linecap="round" stroke-linejoin="round"></path><path d="M119.21 113.519L118.919 113.45C118.72 113.404 118.455 113.327 118.146 113.227C117.39 112.982 116.657 112.674 115.954 112.305C115.578 112.114 115.214 111.9 114.864 111.664C114.553 111.469 114.255 111.255 113.971 111.023L113.157 110.326C113.107 110.281 113.076 110.219 113.07 110.152C113.064 110.086 113.084 110.019 113.124 109.966C113.165 109.913 113.224 109.877 113.29 109.865C113.356 109.854 113.424 109.867 113.481 109.903L113.509 109.923L114.345 110.498C114.634 110.686 114.935 110.857 115.246 111.009C115.595 111.194 115.955 111.358 116.324 111.499C117.009 111.771 117.716 111.983 118.437 112.135C118.731 112.196 118.973 112.24 119.135 112.257L119.408 112.292H119.433C119.597 112.313 119.746 112.398 119.846 112.528C119.947 112.659 119.992 112.824 119.971 112.988C119.95 113.151 119.864 113.299 119.734 113.4C119.603 113.501 119.437 113.545 119.274 113.524C119.252 113.525 119.231 113.523 119.21 113.519Z" fill="#402500"></path><path d="M108.905 87.1463C107.663 92.0592 104.023 102.032 94.4696 105.332C94.4456 105.16 94.4083 104.99 94.3579 104.823C94.2469 104.443 94.0749 104.082 93.8486 103.756C92.4826 101.771 89.364 100.938 88.0091 103.446C86.0957 106.945 88.4448 113.495 94.882 114.674C95.665 117.748 98.4473 129.634 90.6834 139.248C82.9194 148.861 80.1285 159.713 83.9626 167.667C75.0548 168.402 62.5326 161.155 66.7692 145.451C71.0059 129.747 76.5092 127.154 75.8881 113.609C75.2671 100.064 74.435 89.2713 82.82 84.4577C84.4474 78.7263 94.7961 72.8846 108.909 75.1051C118.748 76.6553 123.979 82.2372 123.718 87.199C123.483 91.5408 119.308 94.0836 119.308 94.0836C116.31 93.4476 111.353 91.3754 108.905 87.1463Z" fill="#009EDB"></path><path d="M94.4686 105.331C94.4446 105.159 94.4073 104.989 94.3569 104.822C94.2459 104.442 94.0739 104.081 93.8476 103.755C92.4816 101.77 89.363 100.937 88.0081 103.445C86.0947 106.944 88.4438 113.494 94.881 114.673C95.664 117.747 98.4463 129.633 90.6824 139.247C82.9184 148.86 80.1275 159.712 83.9616 167.666C75.0538 168.401 62.5316 161.154 66.7682 145.45C71.0049 129.746 76.5082 127.153 75.8871 113.608C75.2661 100.063 74.434 89.2703 82.819 84.4567C84.4464 78.7253 94.7951 72.8836 108.908 75.1041C118.747 76.6543 123.978 82.2362 123.717 87.1981C123.482 91.5398 119.307 94.0826 119.307 94.0826C116.312 93.4503 111.356 91.3781 108.908 87.149C108.908 87.1368 108.896 87.1368 108.896 87.1245" stroke="#402500" stroke-linecap="round" stroke-linejoin="round"></path><path d="M109.477 84.355C109.34 85.2956 109.149 86.2276 108.905 87.1466C107.663 92.0594 104.023 102.032 94.4698 105.332" stroke="#402500" stroke-linecap="round" stroke-linejoin="round"></path><path d="M93.9003 104.403C94.0861 104.214 94.2618 104.015 94.4268 103.808C94.7558 103.45 95.1706 102.841 95.6873 102.14C95.918 101.772 96.1684 101.362 96.431 100.934C96.7208 100.491 96.9788 100.028 97.203 99.5481L97.9664 98.0273C98.2119 97.5016 98.3996 96.9416 98.6218 96.395C98.8439 95.8485 99.0648 95.2995 99.2489 94.748C99.406 94.1868 99.5607 93.6365 99.7116 93.1022C99.8626 92.5679 100.007 92.0508 100.146 91.5606C100.285 91.0705 100.328 90.5864 100.414 90.1501L100.923 87.2238V87.2017C100.932 87.1442 100.963 87.0925 101.01 87.058C101.057 87.0235 101.116 87.0091 101.173 87.0179C101.231 87.0267 101.283 87.0579 101.317 87.1048C101.352 87.1517 101.366 87.2103 101.357 87.2679C101.357 87.2679 101.2 88.4602 100.968 90.2469C100.9 90.6918 100.868 91.1832 100.757 91.6893C100.647 92.1954 100.512 92.7248 100.382 93.275C100.252 93.8253 100.117 94.3951 99.9792 94.9735C99.8147 95.5446 99.5987 96.1095 99.4085 96.6891C99.2183 97.2688 99.0317 97.8411 98.8047 98.3925L98.0855 99.9929C97.8739 100.499 97.6279 100.991 97.3491 101.463C97.0913 101.921 96.8496 102.353 96.625 102.751C96.1119 103.517 95.7118 104.162 95.3486 104.59C95.1815 104.819 95.0025 105.039 94.8122 105.249L94.7865 105.276C94.6725 105.395 94.5157 105.465 94.3504 105.469C94.1852 105.473 94.025 105.412 93.9052 105.298C93.7855 105.184 93.7158 105.028 93.7117 104.863C93.7075 104.698 93.7692 104.538 93.8832 104.418L93.9003 104.403Z" fill="#402500"></path><path d="M93.2623 103.553L93.4439 103.069C93.5666 102.76 93.6992 102.324 93.8563 101.797C94.0134 101.27 94.2245 100.665 94.3791 99.9869C94.5338 99.3092 94.6786 98.58 94.832 97.8546C94.9105 97.4869 94.9879 97.1267 95.0627 96.7676C95.1376 96.4085 95.1449 96.047 95.1854 95.7002C95.2566 95.0054 95.3205 94.3522 95.3781 93.802C95.4911 92.6869 95.5671 91.9442 95.5671 91.9442V91.9148C95.5803 91.8581 95.6133 91.8079 95.6602 91.7732C95.7071 91.7385 95.7648 91.7217 95.823 91.7257C95.8812 91.7297 95.9361 91.7542 95.9779 91.7949C96.0196 91.8357 96.0454 91.8899 96.0507 91.9479C96.0507 91.9479 96.0225 92.7028 95.9795 93.8363C95.9587 94.4049 95.9329 95.0679 95.9047 95.7774C95.8838 96.1328 95.8936 96.5029 95.8457 96.873C95.7979 97.2431 95.7365 97.6168 95.6801 97.993C95.5684 98.7455 95.4567 99.4979 95.3524 100.199C95.248 100.9 95.048 101.554 94.9265 102.118C94.805 102.682 94.681 103.153 94.5816 103.466L94.4319 103.956C94.384 104.114 94.2755 104.246 94.1301 104.323C93.9848 104.401 93.8145 104.417 93.6568 104.37C93.4991 104.322 93.3669 104.214 93.2892 104.068C93.2115 103.923 93.1948 103.753 93.2426 103.596L93.2537 103.56L93.2623 103.553Z" fill="#402500"></path><path d="M186.304 113.582C185.936 114.177 181.608 119.784 180.889 120.43C180.17 121.076 173.957 124.338 172.789 126.012C171.62 127.686 159.534 157.384 155.967 162.915C152.401 168.447 149.52 173.074 146.128 174.434C144.326 175.17 110.224 171.855 110.224 171.855V151.987L138.868 159.652C141.349 154.701 144.155 149.919 147.267 145.337C151.504 139.395 164.659 124.932 166.051 119.4C167.443 113.867 168.224 111.2 168.685 110.394C169.145 109.587 171.385 107.453 172.075 106.139C172.764 104.825 173.193 103.422 173.547 103.559C174.591 103.92 175.796 105.398 174.765 108.236C176.58 106.461 178.679 104.415 179.249 103.894C180.306 102.914 183.287 99.8377 184.008 99.0558C184.728 98.274 185.797 97.5056 186.045 97.6306C186.323 98.6075 186.221 99.653 185.76 100.558H185.773C186.029 100.145 186.411 99.8251 186.862 99.6441C187.314 99.4631 187.811 99.4309 188.282 99.5521C188.271 100.398 188.104 101.234 187.791 102.02C187.791 102.02 188.934 104.016 188.798 104.488C188.662 104.96 188.003 106.932 187.791 107.477C187.604 107.877 187.388 108.262 187.146 108.631V110.914C186.982 111.836 186.699 112.733 186.304 113.582Z" fill="white"></path><path d="M125.451 156.061L110.221 151.986V171.858C110.221 171.858 120.653 172.872 130.291 173.653C129.403 167.614 127.777 161.706 125.451 156.061Z" fill="#EFF7FD"></path><path d="M171.855 111.1C171.855 111.1 173.205 109.773 174.775 108.234C176.59 106.46 178.689 104.413 179.26 103.892C180.317 102.912 183.298 99.8361 184.018 99.0542C184.739 98.2724 185.808 97.504 186.055 97.629C186.333 98.6059 186.231 99.6514 185.771 100.557C185.6 101.017 185.365 101.451 185.074 101.846C183.757 103.684 182.441 106.064 181.918 106.733C180.796 107.943 179.884 109.331 179.218 110.839" stroke="#402500" stroke-linecap="round" stroke-linejoin="round"></path><path d="M181.868 113.192C182.627 111.345 183.573 109.579 184.691 107.923C185.839 106.351 186.779 104.637 187.487 102.825C187.598 102.564 187.698 102.292 187.797 102.02C188.11 101.234 188.276 100.397 188.288 99.5518C187.817 99.4297 187.319 99.4616 186.867 99.6426C186.416 99.8237 186.034 100.144 185.778 100.558" stroke="#402500" stroke-linecap="round" stroke-linejoin="round"></path><path d="M183.781 114.462C184.248 113.395 184.784 112.359 185.384 111.36C185.875 110.615 186.611 109.5 187.149 108.631C187.391 108.262 187.607 107.876 187.794 107.477C188.006 106.933 188.677 104.946 188.801 104.488C188.925 104.03 187.794 102.02 187.794 102.02" stroke="#402500" stroke-linecap="round" stroke-linejoin="round"></path><path d="M187.148 108.631V110.913C186.984 111.835 186.7 112.731 186.302 113.58C185.934 114.174 181.606 119.782 180.887 120.427C180.168 121.073 173.955 124.335 172.787 126.009C171.619 127.683 159.532 157.381 155.966 162.912C152.399 168.444 149.518 173.071 146.126 174.432C144.324 175.167 110.222 171.852 110.222 171.852V151.985L138.872 159.652C141.353 154.701 144.158 149.919 147.27 145.337C151.507 139.395 164.662 124.932 166.054 119.399C167.446 113.866 168.228 111.2 168.688 110.393C169.148 109.587 171.388 107.452 172.078 106.139C172.767 104.825 173.196 103.422 173.55 103.559C174.594 103.919 175.799 105.397 174.768 108.235" stroke="#402500" stroke-linecap="round" stroke-linejoin="round"></path><path d="M107.203 147.511C102.24 148.028 96.8447 148.906 96.8447 148.906V168.693C102.642 171.266 107.921 173.818 115.662 175.522C117.135 170.766 122.412 154.077 122.412 154.077C122.412 154.077 115.019 150.793 107.203 147.511Z" fill="#009EDB"></path><path d="M108.482 174.172L102.557 171.7L96.7355 168.94C96.6724 168.91 96.6237 168.857 96.5995 168.791C96.5754 168.726 96.5778 168.653 96.6062 168.589C96.6347 168.526 96.6869 168.475 96.7518 168.449C96.8168 168.423 96.8893 168.424 96.954 168.45L102.874 170.871L108.926 173.014C109.078 173.071 109.201 173.185 109.27 173.331C109.338 173.478 109.347 173.645 109.294 173.798C109.241 173.951 109.131 174.077 108.986 174.15C108.842 174.223 108.675 174.236 108.52 174.188L108.482 174.172Z" fill="#009EDB"></path><path d="M108.731 174.211L104.158 174.221L99.5668 174.013C99.5314 174.011 99.4966 174.003 99.4645 173.988C99.4323 173.973 99.4034 173.952 99.3795 173.926C99.3555 173.9 99.337 173.869 99.3249 173.836C99.3128 173.803 99.3074 173.767 99.3091 173.732C99.3127 173.664 99.3415 173.6 99.3899 173.553C99.4382 173.505 99.5026 173.477 99.5705 173.475L104.112 173.333L108.669 172.965C108.828 172.959 108.984 173.014 109.104 173.12C109.224 173.225 109.299 173.373 109.313 173.532C109.327 173.691 109.279 173.849 109.179 173.974C109.079 174.098 108.935 174.18 108.777 174.201C108.762 174.206 108.747 174.209 108.731 174.211Z" fill="#009EDB"></path><path d="M105.583 147.691C106.123 147.628 106.666 147.569 107.203 147.511C115.014 150.793 122.416 154.075 122.416 154.075C122.416 154.075 117.138 170.768 115.665 175.52C113.313 175.004 110.99 174.358 108.708 173.587" stroke="#402500" stroke-linecap="round" stroke-linejoin="round"></path><path d="M96.792 148.522L105.5 147.077C105.662 147.05 105.829 147.089 105.963 147.185C106.098 147.281 106.188 147.426 106.215 147.588C106.242 147.751 106.204 147.917 106.108 148.051C106.012 148.185 105.866 148.276 105.703 148.303H105.668L96.8975 149.283C96.7955 149.297 96.6921 149.27 96.6102 149.207C96.5282 149.145 96.4744 149.053 96.4606 148.951C96.4468 148.849 96.474 148.746 96.5364 148.664C96.5988 148.582 96.6912 148.529 96.7932 148.515L96.792 148.522Z" fill="#009EDB"></path><path d="M177.966 197.05H175.189V194.28C175.189 193.852 175.018 193.44 174.715 193.137C174.411 192.834 173.999 192.664 173.57 192.664C173.141 192.664 172.729 192.834 172.425 193.137C172.122 193.44 171.951 193.852 171.951 194.28V197.05H169.176C168.747 197.05 168.335 197.22 168.031 197.523C167.727 197.827 167.557 198.238 167.557 198.667C167.557 199.096 167.727 199.507 168.031 199.81C168.335 200.113 168.747 200.284 169.176 200.284H171.951V203.056C171.951 203.484 172.122 203.896 172.425 204.199C172.729 204.502 173.141 204.672 173.57 204.672C173.999 204.672 174.411 204.502 174.715 204.199C175.018 203.896 175.189 203.484 175.189 203.056V200.284H177.966C178.396 200.284 178.808 200.113 179.111 199.81C179.415 199.507 179.586 199.096 179.586 198.667C179.586 198.238 179.415 197.827 179.111 197.523C178.808 197.22 178.396 197.05 177.966 197.05Z" fill="#009EDB"></path><path d="M332.199 76.7327H329.421V73.9632C329.421 73.5345 329.251 73.1234 328.947 72.8202C328.643 72.5171 328.232 72.3468 327.802 72.3468C327.373 72.3468 326.961 72.5171 326.658 72.8202C326.354 73.1234 326.183 73.5345 326.183 73.9632V76.7327H323.409C322.979 76.7327 322.567 76.9031 322.263 77.2063C321.96 77.5095 321.789 77.9208 321.789 78.3497C321.789 78.7785 321.96 79.1898 322.263 79.493C322.567 79.7963 322.979 79.9667 323.409 79.9667H326.183V82.7386C326.183 83.1673 326.354 83.5784 326.658 83.8816C326.961 84.1847 327.373 84.355 327.802 84.355C328.232 84.355 328.643 84.1847 328.947 83.8816C329.251 83.5784 329.421 83.1673 329.421 82.7386V79.9667H332.199C332.628 79.9667 333.04 79.7963 333.344 79.493C333.647 79.1898 333.818 78.7785 333.818 78.3497C333.818 77.9208 333.647 77.5095 333.344 77.2063C333.04 76.9031 332.628 76.7327 332.199 76.7327Z" fill="#009EDB"></path><path d="M430.031 21.384L428.067 19.4233L430.031 17.4626C430.181 17.3125 430.301 17.1342 430.382 16.9381C430.463 16.7419 430.505 16.5317 430.505 16.3194C430.505 16.1072 430.463 15.897 430.382 15.7009C430.3 15.5048 430.181 15.3266 430.03 15.1765C429.88 15.0265 429.702 14.9074 429.505 14.8262C429.309 14.7451 429.098 14.7033 428.886 14.7034C428.673 14.7034 428.462 14.7453 428.266 14.8266C428.07 14.9079 427.891 15.027 427.741 15.1771L425.777 17.1379L423.814 15.1771C423.51 14.8739 423.098 14.7035 422.668 14.7035C422.239 14.7035 421.827 14.8739 421.523 15.1771C421.22 15.4804 421.049 15.8916 421.049 16.3205C421.049 16.7493 421.22 17.1606 421.523 17.4638L423.487 19.4245L421.523 21.3853C421.22 21.6885 421.049 22.0998 421.049 22.5286C421.049 22.9574 421.22 23.3687 421.523 23.672C421.827 23.9752 422.239 24.1455 422.668 24.1455C423.098 24.1455 423.51 23.9752 423.814 23.672L425.777 21.7112L427.741 23.672C428.046 23.967 428.456 24.1304 428.881 24.127C429.305 24.1235 429.712 23.9535 430.013 23.6536C430.313 23.3536 430.484 22.9477 430.487 22.5234C430.491 22.0991 430.328 21.6904 430.032 21.3853L430.031 21.384Z" fill="#009EDB"></path><path d="M525.618 182.786C528.633 182.786 531.078 180.345 531.078 177.333C531.078 174.322 528.633 171.881 525.618 171.881C522.602 171.881 520.157 174.322 520.157 177.333C520.157 180.345 522.602 182.786 525.618 182.786Z" stroke="#009EDB" stroke-miterlimit="10"></path><path d="M154.145 351.704C157.161 351.704 159.605 349.263 159.605 346.252C159.605 343.241 157.161 340.8 154.145 340.8C151.129 340.8 148.685 343.241 148.685 346.252C148.685 349.263 151.129 351.704 154.145 351.704Z" stroke="#009EDB" stroke-miterlimit="10"></path><path d="M146.003 0.612671L151.561 3.43856L146.331 6.82815L146.003 0.612671Z" stroke="#009EDB" stroke-miterlimit="10" stroke-linejoin="round"></path><path d="M389.618 355.239L395.173 358.065L389.946 361.455L389.618 355.239Z" stroke="#009EDB" stroke-miterlimit="10" stroke-linejoin="round"></path><path d="M42.5188 247.859C47.4685 247.859 47.4686 252.51 52.422 252.51C57.3754 252.51 57.3742 247.859 62.3301 247.859C67.2859 247.859 67.2847 252.51 72.2381 252.51C77.1916 252.51 77.1928 247.859 82.1462 247.859C87.0996 247.859 87.1033 252.51 92.0604 252.51C97.0175 252.51 97.0151 247.859 101.973 247.859" stroke="#009EDB" stroke-miterlimit="10"></path><path d="M407.943 112.244C412.895 112.244 412.895 116.9 417.849 116.9C422.802 116.9 422.801 112.244 427.754 112.244C432.708 112.244 432.709 116.9 437.665 116.9C442.621 116.9 442.617 112.244 447.571 112.244C452.524 112.244 452.53 116.9 457.487 116.9C462.444 116.9 462.442 112.244 467.399 112.244" stroke="#009EDB" stroke-miterlimit="10" stroke-linecap="round" stroke-linejoin="round"></path></svg>